<svg data-v-fde0c5aa="" xmlns="http://www.w3.org/2000/svg" viewBox="0 0 300 300" class="iconLeftSlogan"><!----><defs data-v-fde0c5aa=""><!----></defs><rect data-v-fde0c5aa="" fill="transparent" x="0" y="0" width="300px" height="300px" class="logo-background-square"></rect><defs data-v-fde0c5aa=""><!----></defs><g data-v-fde0c5aa="" id="23d8954c-98f9-439c-bdf6-0e0289a0192e" fill="#000000" transform="matrix(1.4164262259043507,0,0,1.4164262259043507,90.05717362182628,127.84706241440075)"><path d="M0.74 8.88C0.74 12.01 3.19 14.14 6.09 14.14C9.02 14.14 11.47 12.01 11.47 8.88C11.47 5.75 9.02 3.64 6.09 3.64C3.19 3.64 0.74 5.75 0.74 8.88ZM1.85 8.88C1.85 6.30 3.79 4.61 6.09 4.61C8.41 4.61 10.35 6.30 10.35 8.88C10.35 11.47 8.41 13.17 6.09 13.17C3.79 13.17 1.85 11.47 1.85 8.88ZM18.80 6.72L18.80 12.18C17.86 12.82 16.91 13.22 16.09 13.22C14.99 13.22 14.39 12.60 14.39 11.42L14.39 6.72L13.34 6.72L13.34 11.47C13.34 13.22 14.28 14.14 15.82 14.14C16.90 14.14 17.85 13.78 18.93 13.06L19.11 14L19.85 14L19.85 6.72ZM25.77 6.58C25.00 6.58 24.14 6.97 23.20 7.76L23.02 6.72L22.27 6.72L22.27 14L23.31 14L23.31 8.75C24.22 7.98 24.96 7.59 25.58 7.59C25.90 7.59 26.18 7.64 26.42 7.73L26.54 6.71C26.33 6.64 26.08 6.58 25.77 6.58ZM27.23 11.14C27.73 13.01 29.20 14.14 31.22 14.14C33.12 14.14 34.68 13.02 34.68 11.37C34.68 7.80 28.91 9.07 28.91 6.24C28.91 5.28 29.81 4.62 31.11 4.62C32.33 4.62 33.21 5.33 33.56 6.51L34.64 6.51C34.26 4.80 32.98 3.64 31.11 3.64C29.18 3.64 27.82 4.72 27.82 6.24C27.82 10.05 33.57 8.69 33.57 11.40C33.57 12.40 32.58 13.16 31.22 13.16C29.88 13.16 28.77 12.49 28.34 11.14ZM36.13 10.33C36.13 12.45 37.72 14.14 39.94 14.14C42.15 14.14 43.74 12.45 43.74 10.33C43.74 8.25 42.15 6.58 39.94 6.58C37.72 6.58 36.13 8.25 36.13 10.33ZM37.17 10.36C37.17 8.76 38.32 7.49 39.94 7.49C41.55 7.49 42.69 8.76 42.69 10.36C42.69 11.94 41.55 13.23 39.94 13.23C38.32 13.23 37.17 11.94 37.17 10.36ZM48.51 3.96C48.99 3.96 49.34 4.06 49.71 4.19L49.83 3.30C49.41 3.14 48.89 3.02 48.36 3.02C47.01 3.02 46.28 3.72 46.28 5.22L46.28 6.72L44.70 6.72L44.70 7.62L46.28 7.62L46.28 14.08L47.33 14.08L47.33 7.62L49.69 7.62L49.69 6.72L47.33 6.72L47.33 5.22C47.33 4.30 47.73 3.96 48.51 3.96ZM50.22 7.62L51.35 7.62L51.35 12.00C51.35 13.57 52.22 14.14 53.34 14.14C54.08 14.14 54.78 13.99 55.36 13.73L55.24 12.84C54.73 13.06 54.14 13.22 53.49 13.22C52.81 13.22 52.39 12.85 52.39 11.98L52.39 7.62L55.31 7.62L55.31 6.72L52.39 6.72L52.39 4.65L51.38 4.91L51.38 6.72L50.22 6.72ZM56.10 11.14C56.60 13.01 58.07 14.14 60.09 14.14C61.99 14.14 63.55 13.02 63.55 11.37C63.55 7.80 57.78 9.07 57.78 6.24C57.78 5.28 58.67 4.62 59.98 4.62C61.19 4.62 62.08 5.33 62.43 6.51L63.50 6.51C63.13 4.80 61.85 3.64 59.98 3.64C58.04 3.64 56.69 4.72 56.69 6.24C56.69 10.05 62.44 8.69 62.44 11.40C62.44 12.40 61.45 13.16 60.09 13.16C58.74 13.16 57.64 12.49 57.20 11.14ZM65.00 10.33C65.00 12.45 66.58 14.14 68.81 14.14C71.02 14.14 72.60 12.45 72.60 10.33C72.60 8.25 71.02 6.58 68.81 6.58C66.58 6.58 65.00 8.25 65.00 10.33ZM66.04 10.36C66.04 8.76 67.19 7.49 68.81 7.49C70.42 7.49 71.55 8.76 71.55 10.36C71.55 11.94 70.42 13.23 68.81 13.23C67.19 13.23 66.04 11.94 66.04 10.36ZM75.59 3.08L74.54 3.08L74.54 14L75.59 14ZM83.43 6.72L83.43 12.18C82.49 12.82 81.54 13.22 80.71 13.22C79.62 13.22 79.02 12.60 79.02 11.42L79.02 6.72L77.97 6.72L77.97 11.47C77.97 13.22 78.90 14.14 80.44 14.14C81.52 14.14 82.47 13.78 83.55 13.06L83.73 14L84.48 14L84.48 6.72ZM86.03 7.62L87.16 7.62L87.16 12.00C87.16 13.57 88.03 14.14 89.15 14.14C89.89 14.14 90.59 13.99 91.17 13.73L91.06 12.84C90.54 13.06 89.95 13.22 89.31 13.22C88.62 13.22 88.20 12.85 88.20 11.98L88.20 7.62L91.13 7.62L91.13 6.72L88.20 6.72L88.20 4.65L87.19 4.91L87.19 6.72L86.03 6.72ZM93.23 5.10C93.66 5.10 94.02 4.73 94.02 4.27C94.02 3.85 93.66 3.50 93.23 3.50C92.78 3.50 92.43 3.85 92.43 4.27C92.43 4.73 92.78 5.10 93.23 5.10ZM93.72 6.72L92.67 6.72L92.67 14L93.72 14ZM95.65 10.33C95.65 12.45 97.23 14.14 99.46 14.14C101.67 14.14 103.25 12.45 103.25 10.33C103.25 8.25 101.67 6.58 99.46 6.58C97.23 6.58 95.65 8.25 95.65 10.33ZM96.68 10.36C96.68 8.76 97.83 7.49 99.46 7.49C101.07 7.49 102.20 8.76 102.20 10.36C102.20 11.94 101.07 13.23 99.46 13.23C97.83 13.23 96.68 11.94 96.68 10.36ZM109.42 6.58C108.26 6.58 107.20 6.99 106.08 7.78L105.91 6.72L105.15 6.72L105.15 14L106.19 14L106.19 8.65C107.18 7.98 108.25 7.50 109.16 7.50C110.26 7.50 110.89 8.12 110.89 9.30L110.89 14L111.94 14L111.94 9.25C111.94 7.50 110.99 6.58 109.42 6.58ZM113.99 8.54C113.99 11.48 118.94 10.02 118.96 12.05C118.97 12.88 118.16 13.29 116.98 13.29C115.77 13.29 114.79 12.75 114.59 11.69L113.60 11.69C113.82 13.34 115.30 14.14 116.96 14.14C118.68 14.14 119.98 13.40 119.98 12.05C119.98 9.14 115.01 10.57 115.01 8.54C115.01 7.94 115.61 7.43 116.89 7.43C118.29 7.43 118.78 8.13 118.87 8.99L119.84 8.99C119.76 7.70 118.85 6.58 116.91 6.58C114.98 6.58 113.99 7.43 113.99 8.54Z"></path></g><defs data-v-fde0c5aa=""><linearGradient data-v-fde0c5aa="" gradientTransform="rotate(25)" id="c68ea43a-d718-421e-9ae4-6dba3de84af2" x1="0%" y1="0%" x2="100%" y2="0%"><stop data-v-fde0c5aa="" offset="0%" stop-color="#006678" stop-opacity="1"></stop><stop data-v-fde0c5aa="" offset="100%" stop-color="#4FA8FF" stop-opacity="1"></stop></linearGradient></defs><g data-v-fde0c5aa="" id="2a4b26e1-7b53-4e40-9728-3bbdc7be6668" stroke="none" fill="url(#c68ea43a-d718-421e-9ae4-6dba3de84af2)" transform="matrix(0.5887266116775454,0,0,0.5887266116775454,29.24102027326734,119.83512068333451)"><path d="M82.7 50.6L63.6 31.3c-.3-.3-.9-.3-1.2 0-.3.3-.3.9 0 1.2L81 51.2 62.3 70c-.3.3-.3.9 0 1.2.2.2.4.3.6.3.2 0 .5-.1.6-.3l19.2-19.3c.4-.4.4-.9 0-1.3zM38.9 31.3c-.3-.3-.9-.3-1.2 0L18.5 50.6c-.3.3-.3.9 0 1.2l19.2 19.3c.2.2.4.3.6.3.2 0 .4-.1.6-.3.3-.3.3-.9 0-1.2L20.4 51.2 39 32.5c.3-.3.3-.9-.1-1.2zM59.8 21.9c-.5-.1-1 .1-1.1.6l-17.9 57c-.1.5.1 1 .6 1.1h.3c.4 0 .7-.2.8-.6l17.9-57c.1-.5-.1-1-.6-1.1z"></path></g><defs data-v-fde0c5aa=""><!----></defs><g data-v-fde0c5aa="" id="e8fe5f39-73a9-4846-a03c-a9a400c9acfd" fill="#000000" transform="matrix(0.3950845044696801,0,0,0.3950845044696801,90.97100030957097,156.3779601535155)"><path d="M8.83 3.92L8.76 3.92L8.20 3.92L8.09 3.92L6.69 3.92L6.69 4.19C6.69 4.34 6.79 4.42 6.97 4.44L7.08 4.44C7.14 4.44 7.21 4.45 7.32 4.45C7.43 4.45 7.56 4.47 7.70 4.47L5.11 8.64C5.04 8.75 4.98 8.85 4.94 8.95C4.90 9.04 4.86 9.16 4.82 9.25C4.77 9.16 4.73 9.04 4.69 8.95C4.65 8.85 4.59 8.75 4.52 8.64L1.92 4.47C2.06 4.47 2.18 4.45 2.30 4.45C2.41 4.45 2.49 4.44 2.55 4.44L2.65 4.44C2.83 4.42 2.93 4.34 2.93 4.19L2.93 3.92L1.53 3.92L1.41 3.92L0.85 3.92L0.78 3.92L0.34 3.92L0.34 4.19C0.34 4.34 0.43 4.42 0.62 4.44C0.85 4.45 1.04 4.47 1.13 4.47L4.45 9.73L4.45 13.26C4.28 13.26 4.13 13.27 3.99 13.27C3.85 13.27 3.75 13.29 3.68 13.29L3.56 13.29C3.37 13.30 3.28 13.38 3.28 13.54L3.28 13.82L4.45 13.82L5.17 13.82L6.34 13.82L6.34 13.54C6.34 13.38 6.26 13.30 6.08 13.29L5.94 13.29C5.87 13.29 5.77 13.27 5.63 13.27C5.49 13.27 5.33 13.26 5.17 13.26L5.17 9.73L8.48 4.47C8.60 4.47 8.76 4.45 9.00 4.44C9.18 4.42 9.28 4.34 9.28 4.19L9.28 3.92ZM26.03 8.86C26.03 8.11 25.90 7.41 25.68 6.79C25.45 6.17 25.13 5.64 24.71 5.19C24.29 4.75 23.80 4.40 23.23 4.16C22.65 3.92 21.99 3.79 21.29 3.79C20.59 3.79 19.96 3.92 19.39 4.16C18.82 4.40 18.31 4.75 17.89 5.19C17.47 5.64 17.15 6.17 16.93 6.79C16.70 7.41 16.58 8.11 16.58 8.86C16.58 9.63 16.70 10.33 16.93 10.95C17.15 11.56 17.47 12.10 17.89 12.54C18.31 12.99 18.82 13.33 19.39 13.57C19.96 13.80 20.59 13.93 21.29 13.93C21.99 13.93 22.65 13.80 23.23 13.57C23.80 13.33 24.29 12.99 24.71 12.54C25.13 12.10 25.45 11.56 25.68 10.95C25.90 10.33 26.03 9.63 26.03 8.86ZM25.27 8.86C25.27 9.56 25.19 10.18 24.99 10.72C24.79 11.27 24.53 11.75 24.18 12.12C23.83 12.50 23.41 12.81 22.92 13.01C22.43 13.20 21.90 13.30 21.29 13.30C20.71 13.30 20.17 13.20 19.68 13.01C19.19 12.81 18.77 12.50 18.42 12.12C18.07 11.75 17.79 11.27 17.60 10.72C17.40 10.18 17.32 9.56 17.32 8.86C17.32 8.18 17.40 7.55 17.60 7.00C17.79 6.45 18.07 5.98 18.42 5.60C18.77 5.22 19.19 4.91 19.68 4.72C20.17 4.52 20.71 4.41 21.29 4.41C21.90 4.41 22.43 4.52 22.92 4.72C23.41 4.91 23.83 5.22 24.18 5.60C24.53 5.98 24.79 6.45 24.99 7.00C25.19 7.55 25.27 8.18 25.27 8.86ZM42.27 3.92L41.55 3.92L40.19 3.92L40.19 4.19C40.19 4.34 40.29 4.42 40.47 4.44L40.64 4.44C40.74 4.44 40.88 4.45 41.05 4.45C41.22 4.45 41.38 4.47 41.55 4.47L41.55 10.04C41.55 10.50 41.48 10.92 41.34 11.33C41.20 11.73 41.01 12.08 40.74 12.38C40.47 12.67 40.17 12.89 39.79 13.06C39.41 13.23 38.99 13.31 38.51 13.31C38.04 13.31 37.60 13.23 37.23 13.06C36.85 12.89 36.53 12.66 36.27 12.36C36.01 12.07 35.83 11.72 35.69 11.33C35.55 10.93 35.48 10.50 35.48 10.04L35.48 4.47C35.64 4.47 35.81 4.45 35.98 4.45C36.15 4.45 36.29 4.44 36.39 4.44L36.55 4.44C36.74 4.42 36.83 4.34 36.83 4.19L36.83 3.92L35.48 3.92L34.76 3.92L33.59 3.92L33.59 4.19C33.59 4.34 33.67 4.42 33.85 4.44L33.99 4.44C34.06 4.44 34.16 4.45 34.30 4.45C34.44 4.45 34.59 4.47 34.76 4.47L34.76 10.04C34.76 10.58 34.85 11.09 35.01 11.56C35.18 12.04 35.43 12.46 35.76 12.81C36.08 13.16 36.48 13.44 36.95 13.64C37.41 13.83 37.94 13.93 38.51 13.93C39.09 13.93 39.61 13.83 40.07 13.64C40.53 13.44 40.94 13.16 41.26 12.81C41.58 12.46 41.83 12.04 42 11.56C42.17 11.09 42.27 10.58 42.27 10.04L42.27 4.47C42.43 4.47 42.57 4.45 42.71 4.45C42.85 4.45 42.97 4.44 43.04 4.44L43.16 4.44C43.34 4.42 43.44 4.34 43.44 4.19L43.44 3.92ZM68.07 4.68C67.48 4.17 66.60 3.92 65.44 3.92L63.03 3.92L61.84 3.92L61.84 4.19C61.84 4.34 61.94 4.42 62.12 4.44L62.26 4.44C62.33 4.44 62.43 4.45 62.57 4.45C62.71 4.45 62.86 4.47 63.03 4.47L63.03 13.26C62.86 13.26 62.71 13.27 62.57 13.27C62.43 13.27 62.33 13.29 62.26 13.29L62.12 13.29C61.94 13.30 61.84 13.38 61.84 13.54L61.84 13.82L63.03 13.82L63.74 13.82L64.92 13.82L64.92 13.54C64.92 13.38 64.82 13.30 64.64 13.29L64.51 13.29C64.44 13.29 64.33 13.27 64.19 13.27C64.05 13.27 63.91 13.26 63.74 13.26L63.74 9.83L65.44 9.83C65.98 9.83 66.47 9.74 66.91 9.60C67.34 9.45 67.70 9.25 68.01 8.99C68.32 8.72 68.56 8.41 68.71 8.05C68.88 7.69 68.95 7.29 68.95 6.86C68.95 5.92 68.66 5.18 68.07 4.68ZM68.04 7.81C67.91 8.11 67.73 8.36 67.49 8.57C67.26 8.78 66.96 8.95 66.61 9.07C66.26 9.20 65.87 9.25 65.44 9.25L63.74 9.25L63.74 4.48L65.44 4.48C66.36 4.48 67.06 4.69 67.54 5.10C68.00 5.50 68.24 6.09 68.24 6.85C68.24 7.20 68.17 7.52 68.04 7.81ZM79.95 4.44C80.14 4.42 80.22 4.34 80.22 4.19L80.22 3.91L79.04 3.91L78.33 3.91L77.14 3.91L77.14 4.19C77.14 4.34 77.24 4.42 77.42 4.44L77.56 4.44C77.63 4.44 77.73 4.45 77.87 4.45C78.01 4.45 78.16 4.47 78.33 4.47L78.33 13.26C78.16 13.26 78.01 13.27 77.87 13.27C77.73 13.27 77.63 13.29 77.56 13.29L77.42 13.29C77.24 13.30 77.14 13.38 77.14 13.54L77.14 13.82L78.33 13.82L79.04 13.82L80.22 13.82L80.22 13.54C80.22 13.38 80.14 13.30 79.95 13.29L79.81 13.29C79.74 13.29 79.65 13.27 79.51 13.27C79.37 13.27 79.21 13.26 79.04 13.26L79.04 4.47C79.21 4.47 79.37 4.45 79.51 4.45C79.65 4.45 79.74 4.44 79.81 4.44ZM96.29 12.21C96.26 12.18 96.22 12.15 96.18 12.15C96.15 12.15 96.14 12.15 96.11 12.17C96.10 12.18 96.07 12.21 96.04 12.22C95.84 12.40 95.63 12.56 95.44 12.70C95.24 12.84 95.03 12.94 94.79 13.03C94.56 13.13 94.30 13.20 94.02 13.24C93.74 13.29 93.44 13.31 93.09 13.31C92.53 13.31 91.98 13.22 91.50 13.01C91.01 12.81 90.61 12.52 90.26 12.14C89.91 11.76 89.61 11.28 89.42 10.74C89.22 10.19 89.12 9.56 89.12 8.86C89.12 8.18 89.22 7.56 89.42 7.01C89.63 6.47 89.91 6.01 90.27 5.61C90.64 5.24 91.07 4.94 91.57 4.73C92.08 4.52 92.62 4.42 93.23 4.42C94.12 4.42 94.95 4.56 95.68 4.89C95.72 5.78 95.76 6.30 95.76 6.41C95.77 6.64 95.86 6.75 96.05 6.75L96.39 6.75L96.39 4.51C95.21 4.03 94.15 3.81 93.23 3.81C92.51 3.81 91.87 3.92 91.27 4.17C90.68 4.42 90.15 4.76 89.73 5.21C89.29 5.66 88.97 6.19 88.73 6.80C88.49 7.42 88.38 8.11 88.38 8.86C88.38 9.63 88.51 10.32 88.73 10.95C88.96 11.58 89.28 12.10 89.68 12.54C90.09 12.99 90.58 13.33 91.15 13.57C91.73 13.80 92.34 13.93 93.03 13.93C93.44 13.93 93.81 13.90 94.16 13.83C94.50 13.76 94.82 13.66 95.12 13.54C95.40 13.41 95.66 13.26 95.90 13.09C96.14 12.91 96.36 12.73 96.57 12.50ZM112.73 3.92L112.53 3.92L105.24 3.92L105.03 3.92L104.93 3.92L104.93 5.96L105.28 5.96C105.48 5.96 105.56 5.85 105.57 5.63C105.57 5.53 105.60 5.17 105.63 4.52L108.53 4.52L108.53 13.26C108.36 13.26 108.22 13.27 108.08 13.27C107.94 13.27 107.83 13.29 107.76 13.29L107.63 13.29C107.45 13.30 107.35 13.38 107.35 13.54L107.35 13.82L108.53 13.82L109.24 13.82L110.43 13.82L110.43 13.54C110.43 13.38 110.33 13.30 110.15 13.29L110.01 13.29C109.94 13.29 109.84 13.27 109.70 13.27C109.56 13.27 109.41 13.26 109.24 13.26L109.24 4.52L112.13 4.52C112.17 5.24 112.18 5.60 112.18 5.63C112.20 5.85 112.29 5.96 112.49 5.96L112.83 5.96L112.83 3.92ZM129.25 3.92L128.53 3.92L127.18 3.92L127.18 4.19C127.18 4.34 127.27 4.42 127.46 4.44L127.62 4.44C127.72 4.44 127.86 4.45 128.03 4.45C128.20 4.45 128.37 4.47 128.53 4.47L128.53 10.04C128.53 10.50 128.46 10.92 128.32 11.33C128.18 11.73 127.99 12.08 127.72 12.38C127.46 12.67 127.15 12.89 126.77 13.06C126.39 13.23 125.97 13.31 125.50 13.31C125.02 13.31 124.59 13.23 124.21 13.06C123.83 12.89 123.51 12.66 123.26 12.36C122.99 12.07 122.81 11.72 122.67 11.33C122.53 10.93 122.46 10.50 122.46 10.04L122.46 4.47C122.63 4.47 122.79 4.45 122.96 4.45C123.13 4.45 123.27 4.44 123.37 4.44L123.54 4.44C123.72 4.42 123.82 4.34 123.82 4.19L123.82 3.92L122.46 3.92L121.74 3.92L120.57 3.92L120.57 4.19C120.57 4.34 120.65 4.42 120.83 4.44L120.97 4.44C121.04 4.44 121.14 4.45 121.28 4.45C121.42 4.45 121.58 4.47 121.74 4.47L121.74 10.04C121.74 10.58 121.83 11.09 122.00 11.56C122.16 12.04 122.42 12.46 122.74 12.81C123.06 13.16 123.47 13.44 123.93 13.64C124.39 13.83 124.92 13.93 125.50 13.93C126.07 13.93 126.59 13.83 127.05 13.64C127.51 13.44 127.92 13.16 128.24 12.81C128.56 12.46 128.81 12.04 128.98 11.56C129.15 11.09 129.25 10.58 129.25 10.04L129.25 4.47C129.42 4.47 129.56 4.45 129.70 4.45C129.84 4.45 129.95 4.44 130.02 4.44L130.14 4.44C130.33 4.42 130.42 4.34 130.42 4.19L130.42 3.92ZM146.44 13.29L146.34 13.29L146.16 13.29C146.08 13.29 145.99 13.27 145.91 13.27L142.94 9.53C142.86 9.42 142.74 9.32 142.63 9.25C143.07 9.21 143.46 9.11 143.81 8.96C144.16 8.81 144.44 8.61 144.69 8.37C144.93 8.13 145.12 7.85 145.25 7.55C145.38 7.24 145.45 6.89 145.45 6.51C145.45 5.66 145.17 5.03 144.61 4.58C144.05 4.14 143.19 3.92 142.04 3.92L139.64 3.92L138.46 3.92L138.46 4.19C138.46 4.34 138.54 4.42 138.73 4.44L138.87 4.44C138.94 4.44 139.03 4.45 139.17 4.45C139.31 4.45 139.47 4.47 139.64 4.47L139.64 13.26C139.47 13.26 139.31 13.27 139.17 13.27C139.03 13.27 138.94 13.29 138.87 13.29L138.73 13.29C138.54 13.30 138.45 13.38 138.45 13.54L138.45 13.82L139.64 13.82L140.35 13.82L141.53 13.82L141.53 13.54C141.53 13.38 141.43 13.30 141.25 13.29L141.11 13.29C141.04 13.29 140.94 13.27 140.80 13.27C140.66 13.27 140.52 13.26 140.35 13.26L140.35 9.34L141.53 9.34C141.72 9.34 141.86 9.35 141.95 9.39C142.03 9.44 142.11 9.52 142.20 9.62L145.38 13.64C145.43 13.71 145.47 13.75 145.53 13.78C145.59 13.80 145.66 13.82 145.73 13.82L145.80 13.82L146.34 13.82L146.71 13.82L146.71 13.54C146.71 13.38 146.62 13.30 146.44 13.29ZM141.95 8.81L140.35 8.81L140.35 4.48L142.04 4.48C142.93 4.48 143.60 4.66 144.06 5.00C144.52 5.33 144.75 5.87 144.75 6.57C144.75 6.92 144.69 7.21 144.56 7.49C144.44 7.77 144.24 7.99 144.00 8.19C143.77 8.39 143.47 8.55 143.12 8.65C142.77 8.75 142.38 8.81 141.95 8.81ZM156.10 3.92L154.91 3.92L154.91 4.19C154.91 4.34 155.01 4.42 155.19 4.44L155.33 4.44C155.40 4.44 155.50 4.45 155.64 4.45C155.78 4.45 155.93 4.47 156.10 4.47L156.10 13.26C155.93 13.26 155.78 13.27 155.64 13.27C155.50 13.27 155.40 13.29 155.33 13.29L155.19 13.29C155.01 13.30 154.92 13.38 154.92 13.54L154.92 13.82L156.10 13.82L162.04 13.82L162.04 13.22L162.04 11.76L161.69 11.76C161.49 11.76 161.41 11.89 161.39 12.11C161.39 12.14 161.38 12.19 161.38 12.29C161.38 12.39 161.38 12.53 161.36 12.74C161.35 12.95 161.34 13.09 161.34 13.22L156.81 13.22L156.81 9.09L160.76 9.09L160.76 8.51L156.81 8.51L156.81 4.51L161.34 4.51C161.36 5.12 161.39 5.50 161.39 5.63C161.41 5.85 161.49 5.96 161.69 5.96L162.04 5.96L162.04 4.51L162.04 3.92ZM183.81 4.44C183.99 4.42 184.07 4.34 184.07 4.19L184.07 3.91L182.90 3.91L182.18 3.91L180.99 3.91L180.99 4.19C180.99 4.34 181.09 4.42 181.27 4.44L181.41 4.44C181.48 4.44 181.58 4.45 181.72 4.45C181.86 4.45 182.01 4.47 182.18 4.47L182.18 13.26C182.01 13.26 181.86 13.27 181.72 13.27C181.58 13.27 181.48 13.29 181.41 13.29L181.27 13.29C181.09 13.30 180.99 13.38 180.99 13.54L180.99 13.82L182.18 13.82L182.90 13.82L184.07 13.82L184.07 13.54C184.07 13.38 183.99 13.30 183.81 13.29L183.67 13.29C183.60 13.29 183.50 13.27 183.36 13.27C183.22 13.27 183.06 13.26 182.90 13.26L182.90 4.47C183.06 4.47 183.22 4.45 183.36 4.45C183.50 4.45 183.60 4.44 183.67 4.44ZM199.93 3.92L199.74 3.92L192.44 3.92L192.23 3.92L192.14 3.92L192.14 5.96L192.49 5.96C192.68 5.96 192.77 5.85 192.78 5.63C192.78 5.53 192.81 5.17 192.84 4.52L195.73 4.52L195.73 13.26C195.57 13.26 195.43 13.27 195.29 13.27C195.15 13.27 195.03 13.29 194.96 13.29L194.84 13.29C194.66 13.30 194.56 13.38 194.56 13.54L194.56 13.82L195.73 13.82L196.45 13.82L197.64 13.82L197.64 13.54C197.64 13.38 197.54 13.30 197.36 13.29L197.22 13.29C197.15 13.29 197.05 13.27 196.91 13.27C196.77 13.27 196.62 13.26 196.45 13.26L196.45 4.52L199.33 4.52C199.37 5.24 199.39 5.60 199.39 5.63C199.40 5.85 199.50 5.96 199.70 5.96L200.03 5.96L200.03 3.92ZM207.19 13.23C207.19 13.41 207.23 13.57 207.34 13.68C207.45 13.79 207.61 13.85 207.77 13.85L207.89 13.85C207.91 13.85 207.94 13.83 207.97 13.82C207.96 13.99 207.91 14.14 207.86 14.29C207.80 14.45 207.73 14.57 207.66 14.70C207.59 14.83 207.52 14.94 207.45 15.02C207.38 15.11 207.31 15.19 207.27 15.23C207.26 15.25 207.24 15.27 207.23 15.30C207.21 15.33 207.20 15.33 207.20 15.36C207.20 15.40 207.21 15.44 207.26 15.48L207.37 15.58C207.52 15.43 207.68 15.29 207.80 15.11C207.93 14.92 208.04 14.74 208.14 14.55C208.24 14.35 208.29 14.15 208.35 13.96C208.40 13.76 208.42 13.58 208.42 13.38C208.42 13.16 208.36 12.98 208.25 12.84C208.14 12.70 207.98 12.63 207.79 12.63C207.61 12.63 207.47 12.70 207.35 12.81C207.24 12.92 207.19 13.06 207.19 13.23ZM241.25 3.92L240.70 3.92L240.66 3.92L239.19 3.92L239.19 4.19C239.19 4.34 239.27 4.42 239.46 4.44L239.58 4.44C239.64 4.44 239.74 4.45 239.88 4.45C240.02 4.45 240.16 4.47 240.32 4.47L237.94 12.24C237.92 12.33 237.89 12.43 237.87 12.54C237.86 12.66 237.83 12.75 237.80 12.87C237.78 12.75 237.76 12.63 237.73 12.53L237.65 12.24L234.85 4.10C234.82 4.05 234.79 3.99 234.75 3.96C234.71 3.93 234.65 3.92 234.58 3.92L234.39 3.92C234.32 3.92 234.26 3.93 234.22 3.98C234.18 4.02 234.14 4.05 234.12 4.10L231.32 12.25C231.29 12.35 231.27 12.43 231.24 12.54C231.21 12.64 231.20 12.75 231.17 12.88C231.15 12.78 231.13 12.67 231.10 12.54C231.08 12.43 231.06 12.33 231.03 12.24L228.65 4.47C228.82 4.47 228.96 4.45 229.08 4.45C229.21 4.45 229.29 4.44 229.35 4.44L229.46 4.44C229.64 4.42 229.74 4.34 229.74 4.19L229.74 3.92L228.27 3.92L227.68 3.92L227.08 3.92L227.08 4.19C227.08 4.34 227.18 4.42 227.36 4.44L227.46 4.44C227.50 4.44 227.54 4.45 227.61 4.45C227.68 4.45 227.77 4.47 227.85 4.47L230.80 13.82L231.43 13.82L234.37 5.22C234.42 5.11 234.44 5.00 234.47 4.87C234.50 5.00 234.53 5.11 234.57 5.22L237.50 13.82L238.14 13.82L241.08 4.47C241.16 4.47 241.23 4.45 241.30 4.45C241.37 4.45 241.43 4.44 241.47 4.44L241.57 4.44C241.75 4.42 241.84 4.34 241.84 4.19L241.84 3.92ZM251.08 3.92L249.89 3.92L249.89 4.19C249.89 4.34 249.98 4.42 250.17 4.44L250.31 4.44C250.38 4.44 250.47 4.45 250.61 4.45C250.75 4.45 250.91 4.47 251.08 4.47L251.08 13.26C250.91 13.26 250.75 13.27 250.61 13.27C250.47 13.27 250.38 13.29 250.31 13.29L250.17 13.29C249.98 13.30 249.90 13.38 249.90 13.54L249.90 13.82L251.08 13.82L257.01 13.82L257.01 13.22L257.01 11.76L256.66 11.76C256.47 11.76 256.38 11.89 256.37 12.11C256.37 12.14 256.35 12.19 256.35 12.29C256.35 12.39 256.35 12.53 256.34 12.74C256.33 12.95 256.31 13.09 256.31 13.22L251.79 13.22L251.79 9.09L255.74 9.09L255.74 8.51L251.79 8.51L251.79 4.51L256.31 4.51C256.34 5.12 256.37 5.50 256.37 5.63C256.38 5.85 256.47 5.96 256.66 5.96L257.01 5.96L257.01 4.51L257.01 3.92ZM284.97 6.80C284.75 6.19 284.42 5.68 284.00 5.25C283.58 4.82 283.09 4.48 282.52 4.26C281.95 4.03 281.29 3.92 280.59 3.92L277.16 3.92L275.97 3.92L275.97 4.19C275.97 4.34 276.07 4.42 276.25 4.44L276.39 4.44C276.46 4.44 276.56 4.45 276.70 4.45C276.84 4.45 276.99 4.47 277.16 4.47L277.16 13.26C276.99 13.26 276.84 13.27 276.70 13.27C276.56 13.27 276.46 13.29 276.39 13.29L276.25 13.29C276.07 13.30 275.97 13.38 275.97 13.54L275.97 13.82L277.16 13.82L280.59 13.82C281.29 13.82 281.95 13.71 282.52 13.48C283.09 13.26 283.58 12.92 284.00 12.49C284.42 12.05 284.75 11.54 284.97 10.92C285.19 10.30 285.32 9.63 285.32 8.86C285.32 8.11 285.19 7.42 284.97 6.80ZM284.28 10.72C284.09 11.27 283.84 11.72 283.49 12.10C283.14 12.47 282.72 12.75 282.23 12.95C281.74 13.15 281.19 13.24 280.59 13.24L277.87 13.24L277.87 4.49L280.59 4.49C281.19 4.49 281.74 4.59 282.23 4.79C282.72 4.98 283.14 5.26 283.49 5.64C283.84 6.02 284.09 6.47 284.28 7.01C284.48 7.56 284.58 8.18 284.58 8.86C284.58 9.56 284.48 10.18 284.28 10.72ZM294.80 3.92L293.61 3.92L293.61 4.19C293.61 4.34 293.71 4.42 293.89 4.44L294.03 4.44C294.10 4.44 294.20 4.45 294.34 4.45C294.48 4.45 294.63 4.47 294.80 4.47L294.80 13.26C294.63 13.26 294.48 13.27 294.34 13.27C294.20 13.27 294.10 13.29 294.03 13.29L293.89 13.29C293.71 13.30 293.62 13.38 293.62 13.54L293.62 13.82L294.80 13.82L300.73 13.82L300.73 13.22L300.73 11.76L300.38 11.76C300.19 11.76 300.10 11.89 300.09 12.11C300.09 12.14 300.08 12.19 300.08 12.29C300.08 12.39 300.08 12.53 300.06 12.74C300.05 12.95 300.03 13.09 300.03 13.22L295.51 13.22L295.51 9.09L299.46 9.09L299.46 8.51L295.51 8.51L295.51 4.51L300.03 4.51C300.06 5.12 300.09 5.50 300.09 5.63C300.10 5.85 300.19 5.96 300.38 5.96L300.73 5.96L300.73 4.51L300.73 3.92ZM318.22 3.92L317.66 3.92L317.63 3.92L316.16 3.92L316.16 4.19C316.16 4.34 316.25 4.42 316.43 4.44L316.55 4.44C316.61 4.44 316.69 4.45 316.82 4.45C316.95 4.45 317.09 4.47 317.24 4.47L314.03 12.32C313.95 12.53 313.88 12.75 313.82 13.01C313.77 12.77 313.70 12.53 313.61 12.32L310.38 4.47C310.53 4.47 310.69 4.45 310.81 4.45C310.94 4.45 311.02 4.44 311.08 4.44L311.19 4.44C311.37 4.42 311.47 4.34 311.47 4.19L311.47 3.92L309.97 3.92L309.41 3.92L308.81 3.92L308.81 4.19C308.81 4.34 308.91 4.42 309.09 4.44L309.19 4.44C309.23 4.44 309.30 4.45 309.37 4.45C309.44 4.45 309.54 4.47 309.64 4.47L313.50 13.82L314.13 13.82L318.00 4.47C318.09 4.47 318.19 4.45 318.26 4.45C318.33 4.45 318.40 4.44 318.44 4.44L318.53 4.44C318.71 4.42 318.81 4.34 318.81 4.19L318.81 3.92ZM328.05 3.92L326.86 3.92L326.86 4.19C326.86 4.34 326.96 4.42 327.14 4.44L327.28 4.44C327.35 4.44 327.45 4.45 327.59 4.45C327.73 4.45 327.88 4.47 328.05 4.47L328.05 13.26C327.88 13.26 327.73 13.27 327.59 13.27C327.45 13.27 327.35 13.29 327.28 13.29L327.14 13.29C326.96 13.30 326.87 13.38 326.87 13.54L326.87 13.82L328.05 13.82L333.98 13.82L333.98 13.22L333.98 11.76L333.63 11.76C333.44 11.76 333.35 11.89 333.34 12.11C333.34 12.14 333.33 12.19 333.33 12.29C333.33 12.39 333.33 12.53 333.31 12.74C333.30 12.95 333.28 13.09 333.28 13.22L328.76 13.22L328.76 9.09L332.71 9.09L332.71 8.51L328.76 8.51L328.76 4.51L333.28 4.51C333.31 5.12 333.34 5.50 333.34 5.63C333.35 5.85 333.44 5.96 333.63 5.96L333.98 5.96L333.98 4.51L333.98 3.92ZM348.94 11.97C348.74 11.97 348.66 12.08 348.64 12.31C348.64 12.32 348.64 12.38 348.63 12.43C348.61 12.49 348.61 12.59 348.60 12.71C348.59 12.84 348.57 13.01 348.56 13.20L344.47 13.20L344.47 4.47C344.64 4.47 344.78 4.45 344.92 4.45C345.06 4.45 345.17 4.44 345.24 4.44L345.37 4.44C345.55 4.42 345.65 4.34 345.65 4.19L345.65 3.92L344.47 3.92L343.76 3.92L342.57 3.92L342.57 4.19C342.57 4.34 342.66 4.42 342.85 4.44L342.99 4.44C343.06 4.44 343.15 4.45 343.29 4.45C343.43 4.45 343.59 4.47 343.76 4.47L343.76 13.26C343.59 13.26 343.43 13.27 343.29 13.27C343.15 13.27 343.06 13.29 342.99 13.29L342.85 13.29C342.66 13.30 342.57 13.38 342.57 13.54L342.57 13.82L343.76 13.82L349.03 13.82L349.16 13.82L349.29 13.82L349.29 13.55L349.29 12.99L349.29 11.97L349.01 11.97ZM366.42 8.86C366.42 8.11 366.30 7.41 366.07 6.79C365.85 6.17 365.53 5.64 365.11 5.19C364.69 4.75 364.20 4.40 363.62 4.16C363.05 3.92 362.39 3.79 361.69 3.79C360.99 3.79 360.36 3.92 359.79 4.16C359.21 4.40 358.71 4.75 358.29 5.19C357.87 5.64 357.55 6.17 357.32 6.79C357.10 7.41 356.97 8.11 356.97 8.86C356.97 9.63 357.10 10.33 357.32 10.95C357.55 11.56 357.87 12.10 358.29 12.54C358.71 12.99 359.21 13.33 359.79 13.57C360.36 13.80 360.99 13.93 361.69 13.93C362.39 13.93 363.05 13.80 363.62 13.57C364.20 13.33 364.69 12.99 365.11 12.54C365.53 12.10 365.85 11.56 366.07 10.95C366.30 10.33 366.42 9.63 366.42 8.86ZM365.67 8.86C365.67 9.56 365.58 10.18 365.39 10.72C365.19 11.27 364.92 11.75 364.57 12.12C364.22 12.50 363.80 12.81 363.31 13.01C362.82 13.20 362.29 13.30 361.69 13.30C361.10 13.30 360.57 13.20 360.08 13.01C359.59 12.81 359.17 12.50 358.82 12.12C358.47 11.75 358.19 11.27 357.99 10.72C357.80 10.18 357.71 9.56 357.71 8.86C357.71 8.18 357.80 7.55 357.99 7.00C358.19 6.45 358.47 5.98 358.82 5.60C359.17 5.22 359.59 4.91 360.08 4.72C360.57 4.52 361.10 4.41 361.69 4.41C362.29 4.41 362.82 4.52 363.31 4.72C363.80 4.91 364.22 5.22 364.57 5.60C364.92 5.98 365.19 6.45 365.39 7.00C365.58 7.55 365.67 8.18 365.67 8.86ZM380.93 4.68C380.34 4.17 379.46 3.92 378.29 3.92L375.89 3.92L374.70 3.92L374.70 4.19C374.70 4.34 374.79 4.42 374.98 4.44L375.12 4.44C375.19 4.44 375.28 4.45 375.42 4.45C375.56 4.45 375.72 4.47 375.89 4.47L375.89 13.26C375.72 13.26 375.56 13.27 375.42 13.27C375.28 13.27 375.19 13.29 375.12 13.29L374.98 13.29C374.79 13.30 374.70 13.38 374.70 13.54L374.70 13.82L375.89 13.82L376.60 13.82L377.78 13.82L377.78 13.54C377.78 13.38 377.68 13.30 377.50 13.29L377.37 13.29C377.30 13.29 377.19 13.27 377.05 13.27C376.91 13.27 376.77 13.26 376.60 13.26L376.60 9.83L378.29 9.83C378.84 9.83 379.33 9.74 379.76 9.60C380.20 9.45 380.56 9.25 380.87 8.99C381.18 8.72 381.42 8.41 381.57 8.05C381.74 7.69 381.81 7.29 381.81 6.86C381.81 5.92 381.51 5.18 380.93 4.68ZM380.90 7.81C380.77 8.11 380.59 8.36 380.35 8.57C380.11 8.78 379.82 8.95 379.47 9.07C379.12 9.20 378.73 9.25 378.29 9.25L376.60 9.25L376.60 4.48L378.29 4.48C379.22 4.48 379.92 4.69 380.39 5.10C380.86 5.50 381.09 6.09 381.09 6.85C381.09 7.20 381.02 7.52 380.90 7.81ZM403.19 4.44C403.37 4.42 403.45 4.34 403.45 4.19L403.45 3.91L402.28 3.91L401.56 3.91L400.37 3.91L400.37 4.19C400.37 4.34 400.47 4.42 400.65 4.44L400.79 4.44C400.86 4.44 400.96 4.45 401.10 4.45C401.24 4.45 401.39 4.47 401.56 4.47L401.56 13.26C401.39 13.26 401.24 13.27 401.10 13.27C400.96 13.27 400.86 13.29 400.79 13.29L400.65 13.29C400.47 13.30 400.37 13.38 400.37 13.54L400.37 13.82L401.56 13.82L402.28 13.82L403.45 13.82L403.45 13.54C403.45 13.38 403.37 13.30 403.19 13.29L403.05 13.29C402.98 13.29 402.88 13.27 402.74 13.27C402.60 13.27 402.44 13.26 402.28 13.26L402.28 4.47C402.44 4.47 402.60 4.45 402.74 4.45C402.88 4.45 402.98 4.44 403.05 4.44ZM419.31 3.92L419.12 3.92L411.82 3.92L411.61 3.92L411.52 3.92L411.52 5.96L411.87 5.96C412.06 5.96 412.15 5.85 412.16 5.63C412.16 5.53 412.19 5.17 412.22 4.52L415.11 4.52L415.11 13.26C414.95 13.26 414.81 13.27 414.67 13.27C414.53 13.27 414.41 13.29 414.34 13.29L414.22 13.29C414.04 13.30 413.94 13.38 413.94 13.54L413.94 13.82L415.11 13.82L415.83 13.82L417.02 13.82L417.02 13.54C417.02 13.38 416.92 13.30 416.74 13.29L416.60 13.29C416.53 13.29 416.43 13.27 416.29 13.27C416.15 13.27 416.00 13.26 415.83 13.26L415.83 4.52L418.71 4.52C418.75 5.24 418.77 5.60 418.77 5.63C418.78 5.85 418.88 5.96 419.08 5.96L419.41 5.96L419.41 3.92ZM426.54 13.29C426.54 13.47 426.59 13.61 426.72 13.73C426.85 13.86 427.00 13.93 427.18 13.93C427.27 13.93 427.35 13.90 427.43 13.87C427.52 13.85 427.57 13.79 427.63 13.73C427.69 13.68 427.74 13.62 427.77 13.54C427.80 13.45 427.83 13.38 427.83 13.29C427.83 13.20 427.80 13.12 427.77 13.03C427.74 12.95 427.69 12.88 427.63 12.82C427.57 12.77 427.52 12.71 427.43 12.68C427.35 12.66 427.27 12.63 427.18 12.63C427.08 12.63 427.00 12.66 426.92 12.68C426.83 12.71 426.78 12.77 426.72 12.82C426.66 12.88 426.61 12.95 426.58 13.03C426.55 13.12 426.54 13.20 426.54 13.29Z"></path></g></svg>