<svg width="85" height="85" viewBox="0 0 85 85" fill="none" xmlns="http://www.w3.org/2000/svg">
<rect opacity="0.1" width="85" height="85" fill="#302CFF"/>
<circle cx="26.1184" cy="32.3213" r="3.35864" fill="#A09EFF"/>
<circle cx="35.1165" cy="32.3213" r="3.35864" fill="#A09EFF"/>
<circle cx="35.1165" cy="47.5149" r="3.35864" fill="#F3F2FF"/>
<circle cx="26.1184" cy="47.5149" r="3.35864" fill="#F3F2FF"/>
<circle cx="26.1184" cy="63.134" r="3.35864" fill="#A09EFF"/>
<circle cx="35.1165" cy="63.134" r="3.35864" fill="#A09EFF"/>
<path d="M65.9284 25.7596H19.0711C18.1834 25.7596 17.3321 26.1123 16.7044 26.7399C16.0767 27.3676 15.7241 28.2189 15.7241 29.1066V34.6848C15.7241 35.5725 16.0767 36.4238 16.7044 37.0515C17.3321 37.6792 18.1834 38.0318 19.0711 38.0318H65.9284C66.8161 38.0318 67.6674 37.6792 68.2951 37.0515C68.9227 36.4238 69.2754 35.5725 69.2754 34.6848V29.1066C69.2754 28.2189 68.9227 27.3676 68.2951 26.7399C67.6674 26.1123 66.8161 25.7596 65.9284 25.7596ZM22.9759 31.8957C22.9759 31.3441 23.1394 30.8048 23.4459 30.3462C23.7524 29.8875 24.188 29.53 24.6976 29.3189C25.2073 29.1078 25.7681 29.0526 26.3091 29.1602C26.8501 29.2678 27.3471 29.5334 27.7372 29.9235C28.1273 30.3136 28.3929 30.8106 28.5005 31.3516C28.6081 31.8926 28.5529 32.4534 28.3418 32.9631C28.1307 33.4727 27.7732 33.9083 27.3145 34.2148C26.8559 34.5213 26.3166 34.6848 25.765 34.6848C25.0254 34.6843 24.3164 34.3902 23.7934 33.8673C23.2705 33.3443 22.9764 32.6353 22.9759 31.8957V31.8957ZM34.6902 34.6848C34.1385 34.6848 33.5993 34.5213 33.1406 34.2148C32.682 33.9083 32.3245 33.4727 32.1134 32.9631C31.9023 32.4534 31.847 31.8926 31.9546 31.3516C32.0623 30.8106 32.3279 30.3136 32.718 29.9235C33.108 29.5334 33.605 29.2678 34.1461 29.1602C34.6871 29.0526 35.2479 29.1078 35.7575 29.3189C36.2672 29.53 36.7028 29.8875 37.0093 30.3462C37.3157 30.8048 37.4793 31.3441 37.4793 31.8957C37.4781 32.6351 37.1839 33.3438 36.6611 33.8666C36.1383 34.3894 35.4295 34.6837 34.6902 34.6848V34.6848Z" fill="#302CFF"/>
<path opacity="0.4" d="M66.4284 20.2973L57.7375 15.953C57.4268 15.8025 57.0853 15.7261 56.7401 15.7299H28.2598C27.9136 15.7295 27.5722 15.8098 27.2624 15.9642L18.5603 20.3085C18.3397 20.424 18.164 20.6099 18.0613 20.8368C17.9585 21.0636 17.9347 21.3183 17.9934 21.5603C18.0522 21.8022 18.1902 22.0176 18.3855 22.1721C18.5809 22.3265 18.8222 22.4112 19.0713 22.4126H65.9286C66.1806 22.4136 66.4256 22.3292 66.6235 22.1732C66.8215 22.0172 66.9608 21.7988 67.0188 21.5535C67.0767 21.3082 67.0499 21.0506 66.9427 20.8225C66.8355 20.5943 66.6542 20.4093 66.4284 20.2973V20.2973Z" fill="#302CFF"/>
<path d="M65.9284 41.3788H19.0711C18.1834 41.3788 17.3321 41.7314 16.7044 42.3591C16.0767 42.9868 15.7241 43.8381 15.7241 44.7257V50.304C15.7241 51.1917 16.0767 52.043 16.7044 52.6706C17.3321 53.2983 18.1834 53.6509 19.0711 53.6509H65.9284C66.8161 53.6509 67.6674 53.2983 68.2951 52.6706C68.9227 52.043 69.2754 51.1917 69.2754 50.304V44.7257C69.2754 43.8381 68.9227 42.9868 68.2951 42.3591C67.6674 41.7314 66.8161 41.3788 65.9284 41.3788ZM22.9759 47.5149C22.9759 46.9632 23.1394 46.424 23.4459 45.9653C23.7524 45.5066 24.188 45.1491 24.6976 44.938C25.2073 44.7269 25.7681 44.6717 26.3091 44.7793C26.8501 44.8869 27.3471 45.1526 27.7372 45.5427C28.1273 45.9327 28.3929 46.4297 28.5005 46.9707C28.6081 47.5118 28.5529 48.0726 28.3418 48.5822C28.1307 49.0919 27.7732 49.5275 27.3145 49.8339C26.8559 50.1404 26.3166 50.304 25.765 50.304C25.0254 50.3034 24.3164 50.0094 23.7934 49.4864C23.2705 48.9635 22.9764 48.2544 22.9759 47.5149ZM34.6902 50.304C34.1385 50.304 33.5993 50.1404 33.1406 49.8339C32.682 49.5275 32.3245 49.0919 32.1134 48.5822C31.9023 48.0726 31.847 47.5118 31.9546 46.9707C32.0623 46.4297 32.3279 45.9327 32.718 45.5427C33.108 45.1526 33.605 44.8869 34.1461 44.7793C34.6871 44.6717 35.2479 44.7269 35.7575 44.938C36.2672 45.1491 36.7028 45.5066 37.0093 45.9653C37.3157 46.424 37.4793 46.9632 37.4793 47.5149C37.4781 48.2542 37.1839 48.963 36.6611 49.4858C36.1383 50.0086 35.4295 50.3028 34.6902 50.304V50.304Z" fill="#302CFF"/>
<path d="M65.9284 56.9979H19.0711C18.1834 56.9979 17.3321 57.3506 16.7044 57.9782C16.0767 58.6059 15.7241 59.4572 15.7241 60.3449V65.9231C15.7241 66.8108 16.0767 67.6621 16.7044 68.2898C17.3321 68.9175 18.1834 69.2701 19.0711 69.2701H65.9284C66.8161 69.2701 67.6674 68.9175 68.2951 68.2898C68.9227 67.6621 69.2754 66.8108 69.2754 65.9231V60.3449C69.2754 59.4572 68.9227 58.6059 68.2951 57.9782C67.6674 57.3506 66.8161 56.9979 65.9284 56.9979ZM22.9759 63.134C22.9759 62.5824 23.1394 62.0431 23.4459 61.5844C23.7524 61.1258 24.188 60.7683 24.6976 60.5572C25.2073 60.3461 25.7681 60.2909 26.3091 60.3985C26.8501 60.5061 27.3471 60.7717 27.7372 61.1618C28.1273 61.5519 28.3929 62.0488 28.5005 62.5899C28.6081 63.1309 28.5529 63.6917 28.3418 64.2014C28.1307 64.711 27.7732 65.1466 27.3145 65.4531C26.8559 65.7596 26.3166 65.9231 25.765 65.9231C25.0254 65.9225 24.3164 65.6285 23.7934 65.1056C23.2705 64.5826 22.9764 63.8735 22.9759 63.134V63.134ZM34.6902 65.9231C34.1385 65.9231 33.5993 65.7596 33.1406 65.4531C32.682 65.1466 32.3245 64.711 32.1134 64.2014C31.9023 63.6917 31.847 63.1309 31.9546 62.5899C32.0623 62.0488 32.3279 61.5519 32.718 61.1618C33.108 60.7717 33.605 60.5061 34.1461 60.3985C34.6871 60.2909 35.2479 60.3461 35.7575 60.5572C36.2672 60.7683 36.7028 61.1258 37.0093 61.5844C37.3157 62.0431 37.4793 62.5824 37.4793 63.134C37.4781 63.8734 37.1839 64.5821 36.6611 65.1049C36.1383 65.6277 35.4295 65.922 34.6902 65.9231Z" fill="#302CFF"/>
</svg>
