<svg width="44" height="44" viewBox="0 0 44 44" fill="none" xmlns="http://www.w3.org/2000/svg">
<path d="M27.8823 30.1321V40.0546V43.2083C30.3097 42.5414 32.5792 41.469 34.6063 40.0546C36.0412 39.0534 37.3545 37.8807 38.5163 36.5592L27.8823 30.1321Z" fill="#0233AD"/>
<path d="M9.41103 3.94425C7.89103 5.00396 6.5085 6.25361 5.29883 7.66438L15.9219 14.0503V3.94425V0.849243C13.5718 1.52118 11.3763 2.57391 9.41103 3.94425Z" fill="#0233AD"/>
<path d="M1.4411 14.1512C1.37689 14.3198 1.31447 14.4892 1.25413 14.6598C1.10743 15.0744 0.973521 15.4925 0.852539 15.9138H4.35746L1.4411 14.1512Z" fill="#0233AD"/>
<path d="M38.6151 7.58116C37.4152 6.20235 36.0512 4.98138 34.5589 3.94411C32.5382 2.53929 30.2828 1.47096 27.8823 0.802734V3.94411V14.0962L38.6151 7.58116Z" fill="#0233AD"/>
<path d="M42.4905 30.0217C42.5817 29.7885 42.6691 29.5532 42.7528 29.3157C42.9089 28.873 43.0505 28.4262 43.1773 27.9757H39.0869L42.4905 30.0217Z" fill="#0233AD"/>
<path d="M5.12402 36.1291C6.37457 37.624 7.81655 38.9437 9.40968 40.0545C11.3751 41.4249 13.5709 42.4776 15.9216 43.1495V40.0545V29.7073L5.12402 36.1291Z" fill="#0233AD"/>
<path d="M0.821289 27.9757C0.948216 28.4262 1.08971 28.873 1.24577 29.3158C1.33762 29.5761 1.43408 29.8343 1.53485 30.0897L5.01747 27.9756H0.821289V27.9757Z" fill="#0233AD"/>
<path d="M43.1461 15.9137C43.0251 15.4922 42.8912 15.0743 42.7445 14.6597C42.6563 14.4106 42.564 14.1639 42.4674 13.9194L39.1143 15.9137H43.1461Z" fill="#0233AD"/>
<path d="M27.8823 27.9757V30.1322L38.5163 36.5592C39.3954 35.5593 40.1877 34.4741 40.8803 33.3132L31.7535 27.9756H27.8823V27.9757Z" fill="white"/>
<path d="M6.59935 15.9139L1.89977 13.0414C1.73747 13.4058 1.58468 13.7757 1.44141 14.1512L4.35776 15.9137H6.59935V15.9139Z" fill="white"/>
<path d="M36.3032 27.9757L41.9736 31.2376C42.157 30.8394 42.3296 30.4341 42.4906 30.0217L39.087 27.9757H36.3032V27.9757Z" fill="white"/>
<path d="M15.9216 15.9137V14.0502L5.29852 7.66431C4.4943 8.60184 3.76647 9.61058 3.125 10.6817L11.8946 15.9137H15.9216V15.9137Z" fill="white"/>
<path d="M25.4502 15.573L27.8829 14.0962V3.94426V0.802884C27.087 0.58143 26.2749 0.40382 25.4502 0.272583V15.573Z" fill="white"/>
<path d="M18.456 28.2003L15.9219 29.7074V40.0546V43.1496C16.7485 43.3861 17.5942 43.5753 18.4558 43.7147V28.2003H18.456Z" fill="white"/>
<path d="M27.8829 27.9757H25.4502V43.731C26.2761 43.6019 27.0879 43.4268 27.8829 43.2083V40.0546V30.1321V27.9757Z" fill="white"/>
<path d="M15.9219 15.9137H18.456V0.284058C17.5944 0.42347 16.7485 0.612671 15.922 0.849137V3.94414V14.0502V15.9137H15.9219Z" fill="white"/>
<path d="M11.8949 15.9138L3.12514 10.6819C2.67212 11.4382 2.26236 12.2257 1.89941 13.0413L6.59914 15.9138H11.8949Z" fill="#FF0000"/>
<path d="M5.01778 27.9757L1.53516 30.0898C1.98327 31.2241 2.51981 32.3083 3.13572 33.335L12.3431 27.9757H5.01778V27.9757Z" fill="white"/>
<path d="M39.1148 15.9138L42.468 13.9195C42.0364 12.8257 41.5219 11.78 40.9334 10.7882L32.4014 15.9138H39.1148V15.9138Z" fill="white"/>
<path d="M18.4556 28.2004V27.9758H15.9215L4.35645 35.1576C4.60317 35.4892 4.8591 35.8131 5.12366 36.1293L15.9214 29.7075L18.4556 28.2004Z" fill="white"/>
<path d="M25.4502 15.5731V15.9139H27.8828L39.5351 8.71188V8.71173C39.2407 8.32411 38.9339 7.94719 38.6157 7.58142L27.8829 14.0965L25.4502 15.5731Z" fill="white"/>
<path d="M27.8823 15.9138H32.4007L40.9328 10.7883C40.5049 10.0667 40.0378 9.37378 39.5347 8.71179L27.8823 15.9138Z" fill="#FF0000"/>
<path d="M18.4555 18.391V15.9138H15.9215H11.8944H6.5987H4.35711H0.852188C0.6181 16.7283 0.431871 17.555 0.293945 18.391H18.4555Z" fill="white"/>
<path d="M25.4502 25.5875V27.9755H27.8829H31.7541H36.3037H39.0874H43.1778C43.3991 27.1899 43.5761 26.3931 43.7084 25.5875H25.4502Z" fill="white"/>
<path d="M12.343 27.9755H15.9218H18.4559V25.5875H0.291016C0.423145 26.3931 0.600159 27.1899 0.821465 27.9755H5.01765H12.343Z" fill="white"/>
<path d="M32.4008 15.9138H27.8824H25.4497V18.391H43.7047C43.5667 17.5548 43.3803 16.7283 43.1463 15.9138H39.1143H32.4008Z" fill="white"/>
<path d="M15.922 27.9757H12.3432L3.13574 33.335C3.51355 33.9648 3.92124 34.5728 4.35686 35.1575L15.922 27.9757Z" fill="#FF0000"/>
<path d="M18.4561 15.9138V18.3909H25.45V15.9138V15.573V0.272582C24.3207 0.0927431 23.1678 0 21.9996 0C20.8319 0 19.6598 0.0922972 18.5158 0.274365C18.4959 0.277486 18.476 0.280756 18.4561 0.284026V15.9138Z" fill="#FF0000"/>
<path d="M25.45 27.9755V25.5875H18.4561V27.9755V28.2001V43.7146C18.476 43.7181 18.4959 43.7212 18.5158 43.7243C19.2934 43.8481 20.0889 43.931 20.8799 43.9707C21.2519 43.9893 21.6286 43.9987 21.9996 43.9987C22.3706 43.9987 22.7472 43.9893 23.1194 43.9707C23.9065 43.9312 24.6843 43.8506 25.45 43.7309V27.9755V27.9755Z" fill="#FF0000"/>
<path d="M18.4559 25.5875H25.4498H43.708C43.9015 24.4079 43.999 23.2091 43.999 21.9994C43.999 20.7826 43.9005 19.5772 43.7048 18.3909H25.4498H18.4559H0.294281C0.0985396 19.5772 0 20.7826 0 21.9994C0 23.2092 0.0973506 24.4079 0.291011 25.5875H18.4559V25.5875Z" fill="#FF0000"/>
<path d="M31.7534 27.9757L40.8803 33.3133C41.2785 32.6459 41.6436 31.9533 41.9734 31.2376L36.303 27.9757H31.7534V27.9757Z" fill="#FF0000"/>
</svg>
