<svg width="85" height="85" viewBox="0 0 85 85" fill="none" xmlns="http://www.w3.org/2000/svg">
<rect opacity="0.1" width="85" height="85" fill="#302CFF"/>
<path opacity="0.4" fill-rule="evenodd" clip-rule="evenodd" d="M62.9232 32.7988C64.29 34.1656 64.29 36.3817 62.9232 37.7486L46.1692 54.5026C46.1689 54.5028 46.1687 54.5031 46.1684 54.5033C45.5495 55.1224 44.8148 55.6135 44.0062 55.9486C43.1972 56.2838 42.33 56.4564 41.4543 56.4564C40.5786 56.4564 39.7115 56.2838 38.9025 55.9486C38.0935 55.6133 37.3585 55.122 36.7395 54.5026L30.3745 48.1376L15.4383 63.0739C14.0714 64.4407 11.8553 64.4407 10.4885 63.0739C9.12167 61.707 9.12167 59.4909 10.4885 58.1241L25.6597 42.9529C25.6599 42.9527 25.6602 42.9524 25.6605 42.9521C26.2793 42.3331 27.014 41.842 27.8227 41.5069C28.6317 41.1717 29.4988 40.9991 30.3745 40.9991C31.2502 40.9991 32.1174 41.1717 32.9263 41.5069C33.735 41.842 34.4697 42.3331 35.0886 42.9521C35.0888 42.9524 35.0891 42.9527 35.0894 42.9529L41.4543 49.3179L57.9734 32.7988C59.3403 31.432 61.5563 31.432 62.9232 32.7988Z" fill="#302CFF"/>
<path d="M49.6946 27.5595C49.9326 27.3376 50.2291 27.1851 50.557 27.1209L71.9771 23.0417C72.5665 22.9307 73.1715 23.1261 73.5805 23.5648C73.9895 24.0034 74.1423 24.6206 73.9905 25.2008L68.427 46.2842C68.2641 46.8969 67.782 47.3751 67.1648 47.5279C66.5475 47.684 65.898 47.4919 65.4652 47.0278L49.6086 30.0236C49.1758 29.5595 49.0294 28.8981 49.2282 28.2932C49.3204 28.007 49.4838 27.7561 49.6946 27.5595Z" fill="#302CFF"/>
</svg>
