<svg width="85" height="85" viewBox="0 0 85 85" fill="none" xmlns="http://www.w3.org/2000/svg">
<rect opacity="0.1" width="85" height="85" fill="#302CFF"/>
<path d="M72.5479 35.0841C72.4469 34.73 72.2128 34.4287 71.8947 34.2431L68.9036 32.5051C69.3553 30.5026 69.3553 28.4246 68.9036 26.422L71.8499 24.6952C72.0092 24.6027 72.1487 24.4797 72.2604 24.3332C72.3722 24.1868 72.4539 24.0197 72.501 23.8417C72.5482 23.6636 72.5597 23.4779 72.5351 23.2954C72.5104 23.1128 72.45 22.9369 72.3573 22.7778L69.5148 17.9085C69.3271 17.5922 69.0227 17.3624 68.6672 17.2686C68.3116 17.1747 67.9334 17.2243 67.6141 17.4067L64.5165 19.1587C63.0756 17.5919 61.1777 16.5188 59.0922 16.092V12.6411C59.0922 12.2694 58.9445 11.9129 58.6817 11.65C58.4188 11.3872 58.0623 11.2395 57.6906 11.2395H52.084C51.7123 11.2395 51.3558 11.3872 51.0929 11.65C50.8301 11.9129 50.6824 12.2694 50.6824 12.6411V16.0892C48.5978 16.5136 46.6993 17.5825 45.2553 19.1447L42.1605 17.4067C41.8395 17.2255 41.46 17.178 41.1043 17.2746C40.7486 17.3711 40.4452 17.6039 40.2598 17.9225L37.4173 22.7806C37.3246 22.9397 37.2642 23.1156 37.2395 23.2982C37.2149 23.4808 37.2264 23.6664 37.2736 23.8445C37.3207 24.0225 37.4025 24.1896 37.5142 24.336C37.6259 24.4825 37.7654 24.6055 37.9247 24.698L40.8934 26.422C40.4404 28.4244 40.4404 30.5027 40.8934 32.5051L37.8939 34.2319C37.7341 34.324 37.5941 34.4466 37.4818 34.5929C37.3695 34.7391 37.2872 34.9061 37.2395 35.0842C37.1919 35.2623 37.1798 35.4481 37.2041 35.6309C37.2283 35.8136 37.2884 35.9898 37.3809 36.1494L40.1842 41.0214C40.3681 41.34 40.6698 41.5735 41.0243 41.6715C41.3788 41.7696 41.7577 41.7244 42.0792 41.5456L45.2525 39.7824C46.6981 41.3441 48.5973 42.4128 50.6824 42.838V46.2804C50.6824 46.6521 50.8301 47.0086 51.0929 47.2715C51.3558 47.5343 51.7123 47.682 52.084 47.682H57.6906C58.0623 47.682 58.4188 47.5343 58.6817 47.2715C58.9445 47.0086 59.0922 46.6521 59.0922 46.2804V42.838C61.1768 42.4135 63.0753 41.3446 64.5193 39.7824L67.6954 41.5456C68.0169 41.7244 68.3958 41.7696 68.7503 41.6715C69.1048 41.5735 69.4065 41.34 69.5905 41.0214L72.3937 36.1494C72.4883 35.9907 72.5507 35.8149 72.5771 35.6321C72.6036 35.4493 72.5937 35.2631 72.5479 35.0841V35.0841ZM54.8873 36.4689C53.5012 36.4689 52.1463 36.0579 50.9938 35.2878C49.8413 34.5178 48.943 33.4232 48.4126 32.1427C47.8822 30.8621 47.7434 29.453 48.0138 28.0935C48.2842 26.7341 48.9517 25.4853 49.9318 24.5052C50.9119 23.5251 52.1606 22.8577 53.5201 22.5872C54.8795 22.3168 56.2886 22.4556 57.5692 22.986C58.8498 23.5165 59.9443 24.4147 60.7144 25.5672C61.4845 26.7197 61.8955 28.0747 61.8955 29.4608C61.8955 31.3194 61.1571 33.102 59.8428 34.4163C58.5285 35.7306 56.746 36.4689 54.8873 36.4689Z" fill="#302CFF"/>
<path opacity="0.4" d="M47.1134 60.305L44.1279 58.5838C44.5795 56.5812 44.5795 54.5032 44.1279 52.5007L47.0965 50.7767C47.2558 50.6842 47.3953 50.5612 47.5071 50.4147C47.6188 50.2683 47.7006 50.1012 47.7477 49.9231C47.7948 49.745 47.8064 49.5594 47.7817 49.3769C47.757 49.1943 47.6966 49.0184 47.6039 48.8592L44.7614 43.9872C44.5761 43.6685 44.2727 43.4358 43.917 43.3392C43.5612 43.2427 43.1818 43.2901 42.8608 43.4714L39.7772 45.2234C38.3247 43.655 36.4132 42.5865 34.3164 42.1706V38.7198C34.3164 38.3481 34.1688 37.9916 33.9059 37.7287C33.643 37.4658 33.2865 37.3182 32.9148 37.3182H27.3083C26.9365 37.3182 26.58 37.4658 26.3172 37.7287C26.0543 37.9916 25.9066 38.3481 25.9066 38.7198V42.1678C23.822 42.5923 21.9235 43.6612 20.4795 45.2234L17.3847 43.4854C17.0637 43.3042 16.6843 43.2567 16.3285 43.3532C15.9728 43.4498 15.6694 43.6826 15.4841 44.0012L12.6416 48.8592C12.5489 49.0184 12.4884 49.1943 12.4638 49.3769C12.4391 49.5594 12.4507 49.745 12.4978 49.9231C12.5449 50.1012 12.6267 50.2683 12.7384 50.4147C12.8501 50.5612 12.9897 50.6842 13.149 50.7767L16.1176 52.5007C15.6646 54.5031 15.6646 56.5814 16.1176 58.5838L13.1097 60.305C12.9499 60.397 12.8099 60.5197 12.6976 60.6659C12.5853 60.8122 12.503 60.9791 12.4553 61.1573C12.4077 61.3354 12.3956 61.5211 12.4199 61.7039C12.4442 61.8867 12.5042 62.0629 12.5967 62.2224L15.4 67.0945C15.5839 67.4131 15.8856 67.6465 16.2401 67.7446C16.5947 67.8427 16.9735 67.7975 17.295 67.6187L20.4683 65.8555C21.9154 67.4207 23.8178 68.4916 25.9066 68.9166V72.359C25.9066 72.7308 26.0543 73.0873 26.3172 73.3502C26.58 73.613 26.9365 73.7607 27.3083 73.7607H32.9148C33.2865 73.7607 33.643 73.613 33.9059 73.3502C34.1688 73.0873 34.3164 72.7308 34.3164 72.359V68.9166C36.401 68.4922 38.2995 67.4233 39.7436 65.8611L42.9197 67.6243C43.2411 67.8031 43.62 67.8483 43.9745 67.7502C44.329 67.6522 44.6308 67.4187 44.8147 67.1001L47.6179 62.228C47.7104 62.0685 47.7705 61.8923 47.7948 61.7095C47.819 61.5268 47.807 61.341 47.7593 61.1629C47.7117 60.9847 47.6293 60.8178 47.517 60.6715C47.4048 60.5253 47.2647 60.4026 47.105 60.3106L47.1134 60.305ZM30.1115 62.5476C28.7254 62.5476 27.3705 62.1366 26.218 61.3665C25.0655 60.5964 24.1673 59.5019 23.6368 58.2213C23.1064 56.9408 22.9676 55.5317 23.238 54.1722C23.5084 52.8127 24.1759 51.564 25.156 50.5839C26.1361 49.6038 27.3849 48.9363 28.7443 48.6659C30.1038 48.3955 31.5129 48.5343 32.7934 49.0647C34.074 49.5952 35.1685 50.4934 35.9386 51.6459C36.7087 52.7984 37.1197 54.1533 37.1197 55.5394C37.1197 57.3981 36.3813 59.1807 35.0671 60.495C33.7528 61.8092 31.9702 62.5476 30.1115 62.5476V62.5476Z" fill="#302CFF"/>
</svg>
