<svg width="44" height="44" viewBox="0 0 44 44" fill="none" xmlns="http://www.w3.org/2000/svg">
<path d="M22 6.70246H37.8075C36.5772 5.43449 35.2 4.32006 33.709 3.3822H22V6.70246V6.70246Z" fill="white"/>
<path d="M22 13.7118H42.3848C41.8737 12.4548 41.2529 11.2625 40.5359 10.144H22V13.7118Z" fill="white"/>
<path d="M22 20.28H43.9336C43.852 19.2246 43.6955 18.1806 43.4643 17.1534H22V20.28Z" fill="white"/>
<path d="M22 23.7214H0.0664062C0.157963 24.9057 0.344048 26.0754 0.623622 27.2233H43.3762C43.6557 26.0756 43.842 24.9059 43.9335 23.7217H22V23.7214Z" fill="white"/>
<path d="M3.66179 34.1701H40.3444C41.0838 33.0509 41.7271 31.8541 42.2616 30.5896H1.73926C2.27358 31.8518 2.91879 33.0488 3.66179 34.1701Z" fill="white"/>
<path d="M10.3794 40.6951H33.6384C35.0775 39.8007 36.409 38.7412 37.6057 37.5367H6.40723C7.6043 38.7389 8.93722 39.799 10.3794 40.6951Z" fill="white"/>
<path d="M13.228 1.81531C13.1004 1.8706 12.9735 1.92693 12.8472 1.9846L13.1673 1.93808L13.228 1.81531Z" fill="#4961A1"/>
<path d="M22 20.2809V17.1543V13.7125V10.1449V6.70319V3.38308V0.00158691C20.8322 0.00158691 19.6601 0.0938865 18.5161 0.275959C16.876 0.536806 15.2929 0.978387 13.7893 1.58153L13.9655 1.93854L14.8579 2.06815L14.2122 2.6976L14.3647 3.58641L13.5666 3.16682L12.7684 3.58641L12.9209 2.6976L12.404 2.19359C9.04833 3.81708 6.15613 6.27261 4.00663 9.32786L4.72853 9.22292L5.12761 8.41437L5.52668 9.22292L6.41906 9.35253L5.77341 9.98198L5.9259 10.8708L5.12775 10.4512L4.32961 10.8708L4.4821 9.98198L3.92741 9.44126C3.49728 10.0609 3.09746 10.7049 2.73049 11.3712L2.7458 11.4024L3.63818 11.532L2.99253 12.1615L3.14502 13.0503L2.34688 12.6307L2.00518 12.8103C1.72887 13.4122 1.47798 14.0296 1.25444 14.6616C0.792647 15.967 0.457336 17.3087 0.250145 18.6746L0.788485 18.7528L0.156211 19.3692C0.15413 19.3869 0.151752 19.4047 0.149671 19.4224L0.29518 20.2709L0.0765447 20.156C0.0255645 20.7677 0 21.3831 0 22.0016C0 22.578 0.0224432 23.1517 0.0664379 23.7221H22V20.2809ZM3.14473 22.7275L2.34658 22.3079L1.54843 22.7275L1.70093 21.8388L1.05528 21.2094L1.94765 21.0798L2.34673 20.2712L2.7458 21.0798L3.63818 21.2094L2.99253 21.8388L3.14473 22.7275ZM2.99223 16.9914L3.14473 17.8802L2.34658 17.4606L1.54843 17.8802L1.70093 16.9914L1.05528 16.3619L1.94765 16.2323L2.34673 15.4238L2.7458 16.2323L3.63818 16.3619L2.99223 16.9914ZM5.92575 20.2711L5.12761 19.8515L4.32946 20.2711L4.48195 19.3823L3.8363 18.7528L4.72868 18.6232L5.12775 17.8147L5.52683 18.6232L6.41921 18.7528L5.77355 19.3823L5.92575 20.2711ZM5.77341 14.535L5.9259 15.4238L5.12775 15.0042L4.32961 15.4238L4.4821 14.535L3.83645 13.9055L4.72883 13.7759L5.1279 12.9674L5.52698 13.7759L6.41935 13.9055L5.77341 14.535ZM8.77559 22.7275L7.97745 22.3079L7.1793 22.7275L7.3318 21.8388L6.68615 21.2094L7.57852 21.0798L7.9776 20.2712L8.37667 21.0798L9.26905 21.2094L8.6234 21.8388L8.77559 22.7275ZM8.6231 16.9914L8.77559 17.8802L7.97745 17.4606L7.1793 17.8802L7.3318 16.9914L6.68615 16.3619L7.57852 16.2323L7.9776 15.4238L8.37667 16.2323L9.26905 16.3619L8.6231 16.9914ZM8.6231 12.1615L8.77559 13.0503L7.97745 12.6307L7.1793 13.0503L7.3318 12.1615L6.68615 11.532L7.57852 11.4024L7.9776 10.5939L8.37667 11.4024L9.26905 11.532L8.6231 12.1615ZM8.6231 7.34513L8.77559 8.23394L7.97745 7.81435L7.1793 8.23394L7.3318 7.34513L6.68615 6.71568L7.57852 6.58607L7.9776 5.77752L8.37667 6.58607L9.26905 6.71568L8.6231 7.34513ZM11.5147 20.2711L10.7166 19.8515L9.91842 20.2711L10.0709 19.3823L9.42526 18.7528L10.3176 18.6232L10.7167 17.8147L11.1158 18.6232L12.0082 18.7528L11.3625 19.3823L11.5147 20.2711ZM11.3624 14.535L11.5149 15.4238L10.7167 15.0042L9.91856 15.4238L10.0711 14.535L9.42541 13.9055L10.3178 13.7759L10.7169 12.9674L11.1159 13.7759L12.0083 13.9055L11.3624 14.535ZM11.3624 9.98198L11.5149 10.8708L10.7167 10.4512L9.91856 10.8708L10.0711 9.98198L9.42541 9.35253L10.3178 9.22292L10.7169 8.41437L11.1159 9.22292L12.0083 9.35253L11.3624 9.98198ZM11.3624 4.94088L11.5149 5.82969L10.7167 5.4101L9.91856 5.82969L10.0711 4.94088L9.42541 4.31143L10.3178 4.18182L10.7169 3.37327L11.1159 4.18182L12.0083 4.31143L11.3624 4.94088ZM14.3646 22.7275L13.5664 22.3079L12.7683 22.7275L12.9208 21.8388L12.2751 21.2094L13.1675 21.0798L13.5666 20.2712L13.9656 21.0798L14.858 21.2094L14.2124 21.8388L14.3646 22.7275ZM14.2122 16.9914L14.3647 17.8802L13.5666 17.4606L12.7684 17.8802L12.9209 16.9914L12.2753 16.3619L13.1676 16.2323L13.5667 15.4238L13.9658 16.2323L14.8582 16.3619L14.2122 16.9914ZM14.2122 12.1615L14.3647 13.0503L13.5666 12.6307L12.7684 13.0503L12.9209 12.1615L12.2753 11.532L13.1676 11.4024L13.5667 10.5939L13.9658 11.4024L14.8582 11.532L14.2122 12.1615ZM14.2122 7.34513L14.3647 8.23394L13.5666 7.81435L12.7684 8.23394L12.9209 7.34513L12.2753 6.71568L13.1676 6.58607L13.5667 5.77752L13.9658 6.58607L14.8582 6.71568L14.2122 7.34513ZM17.2328 20.2711L16.4347 19.8515L15.6365 20.2711L15.789 19.3823L15.1434 18.7528L16.0358 18.6232L16.4348 17.8147L16.8339 18.6232L17.7263 18.7528L17.0806 19.3823L17.2328 20.2711ZM17.0803 14.535L17.2328 15.4238L16.4347 15.0042L15.6365 15.4238L15.789 14.535L15.1434 13.9055L16.0358 13.7759L16.4348 12.9674L16.8339 13.7759L17.7263 13.9055L17.0803 14.535ZM17.0803 9.98198L17.2328 10.8708L16.4347 10.4512L15.6365 10.8708L15.789 9.98198L15.1434 9.35253L16.0358 9.22292L16.4348 8.41437L16.8339 9.22292L17.7263 9.35253L17.0803 9.98198ZM17.0803 4.94088L17.2328 5.82969L16.4347 5.4101L15.6365 5.82969L15.789 4.94088L15.1434 4.31143L16.0358 4.18182L16.4348 3.37327L16.8339 4.18182L17.7263 4.31143L17.0803 4.94088ZM20.0825 22.7275L19.2844 22.3079L18.4862 22.7275L18.6387 21.8388L17.9931 21.2094L18.8854 21.0798L19.2845 20.2712L19.6836 21.0798L20.576 21.2094L19.9303 21.8388L20.0825 22.7275ZM19.9302 16.9914L20.0827 17.8802L19.2845 17.4606L18.4864 17.8802L18.6389 16.9914L17.9932 16.3619L18.8856 16.2323L19.2847 15.4238L19.6837 16.2323L20.5761 16.3619L19.9302 16.9914ZM19.9302 12.1615L20.0827 13.0503L19.2845 12.6307L18.4864 13.0503L18.6389 12.1615L17.9932 11.532L18.8856 11.4024L19.2847 10.5939L19.6837 11.4024L20.5761 11.532L19.9302 12.1615ZM19.9302 7.34513L20.0827 8.23394L19.2845 7.81435L18.4864 8.23394L18.6389 7.34513L17.9932 6.71568L18.8856 6.58607L19.2847 5.77752L19.6837 6.58607L20.5761 6.71568L19.9302 7.34513ZM19.9302 2.6976L20.0827 3.58641L19.2845 3.16682L18.4864 3.58641L18.6389 2.6976L17.9932 2.06815L18.8856 1.93854L19.2847 1.12999L19.6837 1.93854L20.5761 2.06815L19.9302 2.6976Z" fill="#0233AD"/>
<path d="M22 0.000976562V3.38247H33.709C30.2756 1.22317 26.2383 0.000976562 22 0.000976562Z" fill="#FF0000"/>
<path d="M22 10.1443H40.5359C39.7389 8.90118 38.8233 7.74974 37.8075 6.70264H22V10.1443Z" fill="#FF0000"/>
<path d="M22 17.1536H43.4643C43.2747 16.3104 43.0351 15.4786 42.7457 14.6609C42.6324 14.3406 42.5119 14.0244 42.3848 13.7118H22V17.1536Z" fill="#FF0000"/>
<path d="M22 23.7213V23.7216H43.9336C43.9777 23.151 44 22.5771 44 22.0007C44 21.4243 43.9776 20.8505 43.9336 20.28H22V23.7213Z" fill="#FF0000"/>
<path d="M1.24619 29.3174C1.39809 29.7485 1.56277 30.1725 1.73935 30.5897H42.2617C42.4378 30.1728 42.6023 29.7488 42.7544 29.3174C42.9971 28.6288 43.2044 27.9303 43.3766 27.2234H0.624023C0.796138 27.9303 1.00348 28.6288 1.24619 29.3174Z" fill="#FF0000"/>
<path d="M6.40742 37.5365H37.6057C38.6212 36.5145 39.5394 35.3882 40.3441 34.1702H3.66162C4.46735 35.3861 5.38811 36.5127 6.40742 37.5365Z" fill="#FF0000"/>
<path d="M18.5165 43.7264C19.2941 43.8503 20.0896 43.9332 20.8806 43.9729C21.2527 43.9915 21.6294 44.0008 22.0004 44.0008C22.3714 44.0008 22.748 43.9915 23.1202 43.9729C26.9436 43.7813 30.5404 42.6208 33.6389 40.6948H10.3799C12.822 42.2122 15.5775 43.2588 18.5165 43.7264Z" fill="#FF0000"/>
<path d="M7.97797 5.77686L7.5789 6.58541L6.68652 6.71501L7.33232 7.34446L7.17983 8.23327L7.97797 7.81369L8.77612 8.23327L8.62363 7.34446L9.26943 6.71501L8.37705 6.58541L7.97797 5.77686Z" fill="#FFFCFD"/>
<path d="M13.5662 5.77686L13.1671 6.58541L12.2749 6.71501L12.9206 7.34446L12.7681 8.23327L13.5662 7.81369L14.3644 8.23327L14.212 7.34446L14.8577 6.71501L13.9653 6.58541L13.5662 5.77686Z" fill="#FFFCFD"/>
<path d="M19.2845 5.77686L18.8855 6.58541L17.9932 6.71501L18.6388 7.34446L18.4865 8.23327L19.2845 7.81369L20.0826 8.23327L19.9303 7.34446L20.5759 6.71501L19.6835 6.58541L19.2845 5.77686Z" fill="#FFFCFD"/>
<path d="M3.14473 13.0494L2.99224 12.1606L3.63789 11.5312L2.74551 11.4016L2.7302 11.3704C2.47203 11.8391 2.22991 12.3191 2.00488 12.8093L2.34658 12.6297L3.14473 13.0494Z" fill="#FFFCFD"/>
<path d="M7.97797 10.5931L7.5789 11.4018L6.68652 11.5314L7.33232 12.1609L7.17983 13.0496L7.97797 12.63L8.77612 13.0496L8.62363 12.1609L9.26943 11.5314L8.37705 11.4018L7.97797 10.5931Z" fill="#FFFCFD"/>
<path d="M13.5667 10.5931L13.1676 11.4018L12.2754 11.5314L12.921 12.1609L12.7685 13.0496L13.5667 12.63L14.3648 13.0496L14.2125 12.1609L14.8581 11.5314L13.9658 11.4018L13.5667 10.5931Z" fill="#FFFCFD"/>
<path d="M19.2845 10.5931L18.8855 11.4018L17.9932 11.5314L18.6388 12.1609L18.4865 13.0496L19.2845 12.63L20.0826 13.0496L19.9303 12.1609L20.5759 11.5314L19.6835 11.4018L19.2845 10.5931Z" fill="#FFFCFD"/>
<path d="M2.34663 15.423L1.94755 16.2315L1.05518 16.3613L1.70098 16.9907L1.54848 17.8794L2.34663 17.4598L3.14477 17.8794L2.99228 16.9907L3.63808 16.3613L2.7457 16.2315L2.34663 15.423Z" fill="#FFFCFD"/>
<path d="M7.97797 15.423L7.5789 16.2315L6.68652 16.3613L7.33232 16.9907L7.17983 17.8794L7.97797 17.4598L8.77612 17.8794L8.62363 16.9907L9.26943 16.3613L8.37705 16.2315L7.97797 15.423Z" fill="#FFFCFD"/>
<path d="M13.5667 15.423L13.1676 16.2315L12.2754 16.3613L12.921 16.9907L12.7685 17.8794L13.5667 17.4598L14.3648 17.8794L14.2125 16.9907L14.8581 16.3613L13.9658 16.2315L13.5667 15.423Z" fill="#FFFCFD"/>
<path d="M19.2845 15.423L18.8855 16.2315L17.9932 16.3613L18.6388 16.9907L18.4865 17.8794L19.2845 17.4598L20.0826 17.8794L19.9303 16.9907L20.5759 16.3613L19.6835 16.2315L19.2845 15.423Z" fill="#FFFCFD"/>
<path d="M2.7457 21.0789L2.34663 20.2704L1.94755 21.0789L1.05518 21.2087L1.70098 21.838L1.54848 22.7268L2.34663 22.3072L3.14477 22.7268L2.99228 21.838L3.63808 21.2087L2.7457 21.0789Z" fill="#FFFCFD"/>
<path d="M8.37705 21.0789L7.97797 20.2704L7.5789 21.0789L6.68652 21.2087L7.33232 21.838L7.17983 22.7268L7.97797 22.3072L8.77612 22.7268L8.62363 21.838L9.26943 21.2087L8.37705 21.0789Z" fill="#FFFCFD"/>
<path d="M13.9658 21.0789L13.5667 20.2704L13.1676 21.0789L12.2754 21.2087L12.921 21.838L12.7685 22.7268L13.5667 22.3072L14.3648 22.7268L14.2125 21.838L14.8581 21.2087L13.9658 21.0789Z" fill="#FFFCFD"/>
<path d="M19.6835 21.0789L19.2845 20.2704L18.8855 21.0789L17.9932 21.2087L18.6388 21.838L18.4865 22.7268L19.2845 22.3072L20.0826 22.7268L19.9303 21.838L20.5759 21.2087L19.6835 21.0789Z" fill="#FFFCFD"/>
<path d="M12.7681 3.58593L13.5662 3.16635L14.3644 3.58593L14.2119 2.69712L14.8575 2.06767L13.9651 1.93807L13.789 1.58105C13.6007 1.65656 13.4136 1.73474 13.2276 1.8153L13.167 1.93807L12.8468 1.98459C12.6981 2.05251 12.5503 2.12207 12.4033 2.19326L12.9203 2.69727L12.7681 3.58593Z" fill="#FFFCFD"/>
<path d="M19.2845 1.12939L18.8855 1.93794L17.9932 2.06755L18.6388 2.697L18.4865 3.58581L19.2845 3.16608L20.0826 3.58581L19.9303 2.697L20.5759 2.06755L19.6835 1.93794L19.2845 1.12939Z" fill="#FFFCFD"/>
<path d="M10.7172 3.37268L10.3182 4.18123L9.42578 4.31084L10.0714 4.94029L9.91909 5.8291L10.7172 5.40951L11.5152 5.8291L11.3629 4.94029L12.0085 4.31084L11.1162 4.18123L10.7172 3.37268Z" fill="#FFFCFD"/>
<path d="M16.4345 3.37268L16.0354 4.18123L15.1431 4.31084L15.7887 4.94029L15.6364 5.8291L16.4345 5.40951L17.2327 5.8291L17.0802 4.94029L17.7258 4.31084L16.8336 4.18123L16.4345 3.37268Z" fill="#FFFCFD"/>
<path d="M4.3291 10.8699L5.12725 10.4503L5.92539 10.8699L5.7729 9.98106L6.41855 9.35161L5.52617 9.222L5.1271 8.41345L4.72803 9.222L4.00613 9.32693C3.97952 9.36469 3.95307 9.40259 3.92676 9.44049L4.48145 9.98121L4.3291 10.8699Z" fill="#FFFCFD"/>
<path d="M10.7172 8.41345L10.3182 9.22215L9.42578 9.35176L10.0714 9.98121L9.91909 10.8699L10.7172 10.4503L11.5152 10.8699L11.3629 9.98121L12.0085 9.35176L11.1162 9.22215L10.7172 8.41345Z" fill="#FFFCFD"/>
<path d="M16.435 8.41345L16.0359 9.22215L15.1436 9.35176L15.7892 9.98121L15.6369 10.8699L16.435 10.4503L17.2332 10.8699L17.0807 9.98121L17.7263 9.35176L16.8341 9.22215L16.435 8.41345Z" fill="#FFFCFD"/>
<path d="M5.12739 12.9666L4.72832 13.7751L3.83594 13.9049L4.48174 14.5343L4.32924 15.423L5.12739 15.0034L5.92553 15.423L5.77319 14.5343L6.41884 13.9049L5.52646 13.7751L5.12739 12.9666Z" fill="#FFFCFD"/>
<path d="M10.7172 12.9666L10.3182 13.7751L9.42578 13.9049L10.0714 14.5343L9.91909 15.423L10.7172 15.0034L11.5152 15.423L11.3629 14.5343L12.0085 13.9049L11.1162 13.7751L10.7172 12.9666Z" fill="#FFFCFD"/>
<path d="M16.435 12.9666L16.0359 13.7751L15.1436 13.9049L15.7892 14.5343L15.6369 15.423L16.435 15.0034L17.2332 15.423L17.0807 14.5343L17.7263 13.9049L16.8341 13.7751L16.435 12.9666Z" fill="#FFFCFD"/>
<path d="M0.249845 18.6741C0.214768 18.9049 0.183556 19.1365 0.155762 19.3686L0.788036 18.7523L0.249845 18.6741Z" fill="#FFFCFD"/>
<path d="M0.149298 19.4221C0.12091 19.666 0.0965343 19.9105 0.0761719 20.1558L0.294807 20.2707L0.149298 19.4221Z" fill="#FFFCFD"/>
<path d="M5.52646 18.6225L5.12739 17.814L4.72832 18.6225L3.83594 18.7523L4.48174 19.3816L4.32924 20.2704L5.12739 19.8508L5.92553 20.2704L5.77319 19.3816L6.41884 18.7523L5.52646 18.6225Z" fill="#FFFCFD"/>
<path d="M11.1162 18.6225L10.7172 17.814L10.3182 18.6225L9.42578 18.7523L10.0714 19.3816L9.91909 20.2704L10.7172 19.8508L11.5152 20.2704L11.3629 19.3816L12.0085 18.7523L11.1162 18.6225Z" fill="#FFFCFD"/>
<path d="M16.8341 18.6225L16.435 17.814L16.0359 18.6225L15.1436 18.7523L15.7892 19.3816L15.6369 20.2704L16.435 19.8508L17.2332 20.2704L17.0807 19.3816L17.7263 18.7523L16.8341 18.6225Z" fill="#FFFCFD"/>
</svg>
