<svg width="85" height="85" viewBox="0 0 85 85" fill="none" xmlns="http://www.w3.org/2000/svg">
<rect opacity="0.1" width="85" height="85" fill="#302CFF"/>
<path opacity="0.4" d="M34.962 50.6019C23.7243 50.6019 14.126 52.3378 14.126 59.2762C14.126 66.22 23.6632 68.0158 34.962 68.0158C46.1998 68.0158 55.7981 66.2798 55.7981 59.3414C55.7981 52.3976 46.2608 50.6019 34.962 50.6019" fill="#302CFF"/>
<path d="M34.9619 43.9879C42.6156 43.9879 48.7491 37.9813 48.7491 30.486C48.7491 22.9907 42.6156 16.9841 34.9619 16.9841C27.3111 16.9841 21.1748 22.9907 21.1748 30.486C21.1748 37.9813 27.3111 43.9879 34.9619 43.9879" fill="#302CFF"/>
<path d="M54.3094 30.731C54.3094 34.548 53.1387 38.1095 51.0859 41.068C50.8723 41.3723 51.0609 41.7825 51.4326 41.8477C51.9486 41.9319 52.4785 41.9835 53.0194 41.9944C58.4011 42.1329 63.2308 38.7398 64.5651 33.6297C66.543 26.0475 60.7397 19.2395 53.3468 19.2395C52.545 19.2395 51.7766 19.321 51.0276 19.4704C50.925 19.4922 50.814 19.5411 50.7585 19.628C50.6864 19.7394 50.7391 19.8834 50.8113 19.9784C53.0333 23.0293 54.3094 26.743 54.3094 30.731" fill="#302CFF"/>
<path opacity="0.4" d="M70.2017 51.4855C69.2169 49.4289 66.8395 48.019 63.2221 47.3262C61.5161 46.9187 56.8945 46.3401 52.5974 46.4216C52.5336 46.4297 52.4975 46.4732 52.492 46.5004C52.4837 46.5438 52.5031 46.609 52.5863 46.6552C54.5726 47.6169 62.2484 51.8006 61.283 60.6244C61.2414 61.0101 61.5549 61.3361 61.946 61.2818C63.8352 61.0183 68.6954 59.9941 70.2017 56.8101C71.0367 55.1258 71.0367 53.1698 70.2017 51.4855" fill="#302CFF"/>
</svg>
