<svg width="34" height="34" viewBox="0 0 34 34" fill="none" xmlns="http://www.w3.org/2000/svg">
<rect width="33.9975" height="33.9975" fill="#302CFF"/>
<path opacity="0.4" d="M28.5396 21.5461C28.5396 24.7659 25.9546 27.374 22.7348 27.3855H22.7233H11.2868C8.07863 27.3855 5.45898 24.7889 5.45898 21.5692V21.5577C5.45898 21.5577 5.46591 16.4499 5.47514 13.881C5.47629 13.3987 6.03023 13.1286 6.4076 13.4287C9.14957 15.604 14.053 19.5704 14.1142 19.6223C14.9336 20.279 15.9722 20.6494 17.0339 20.6494C18.0956 20.6494 19.1342 20.279 19.9536 19.6096C20.0148 19.5693 24.8086 15.7217 27.5921 13.5106C27.9706 13.2094 28.5269 13.4794 28.528 13.9607C28.5396 16.5099 28.5396 21.5461 28.5396 21.5461" fill="white"/>
<path d="M27.9344 9.69794C26.935 7.81456 24.9686 6.61206 22.8036 6.61206H11.2864C9.12142 6.61206 7.15496 7.81456 6.15557 9.69794C5.93168 10.1192 6.03786 10.6442 6.41061 10.942L14.9793 17.7958C15.5794 18.2805 16.3064 18.5216 17.0334 18.5216C17.0381 18.5216 17.0415 18.5216 17.045 18.5216C17.0484 18.5216 17.0531 18.5216 17.0565 18.5216C17.7836 18.5216 18.5106 18.2805 19.1107 17.7958L27.6794 10.942C28.0521 10.6442 28.1583 10.1192 27.9344 9.69794" fill="white"/>
</svg>
