<svg width="85" height="85" viewBox="0 0 85 85" fill="none" xmlns="http://www.w3.org/2000/svg">
<rect opacity="0.1" width="85" height="85" fill="#302CFF"/>
<path opacity="0.4" d="M64.8062 34.9676C64.8125 31.0662 63.7954 27.2313 61.8565 23.8458C59.9176 20.4602 57.1246 17.6425 53.7563 15.6737C50.3881 13.7049 46.5624 12.6539 42.661 12.6257C38.7597 12.5975 34.9191 13.593 31.5228 15.5129C28.1264 17.4329 25.293 20.21 23.3053 23.5671C21.3177 26.9243 20.2453 30.7441 20.1952 34.6452C20.1451 38.5463 21.1191 42.3924 23.0199 45.7995C24.9207 49.2065 27.6819 52.0555 31.0279 54.062V71.2953C31.0275 71.7999 31.1769 72.2933 31.4571 72.713C31.7374 73.1327 32.1359 73.4597 32.6022 73.6528C33.0685 73.8458 33.5815 73.896 34.0764 73.7972C34.5713 73.6984 35.0257 73.4549 35.3821 73.0976L42.0485 66.4286C42.1076 66.369 42.1778 66.3216 42.2553 66.2893C42.3327 66.257 42.4158 66.2403 42.4998 66.2403C42.5837 66.2403 42.6668 66.257 42.7442 66.2893C42.8217 66.3216 42.892 66.369 42.951 66.4286L49.6174 73.0976C49.9738 73.4549 50.4282 73.6984 50.9231 73.7972C51.418 73.896 51.9311 73.8458 52.3973 73.6528C52.8636 73.4597 53.2621 73.1327 53.5424 72.713C53.8226 72.2933 53.972 71.7999 53.9716 71.2953V54.062C57.2714 52.0844 60.0034 49.2866 61.9019 45.9407C63.8004 42.5948 64.801 38.8146 64.8062 34.9676V34.9676ZM42.4998 53.4501C38.8443 53.4501 35.2709 52.3661 32.2314 50.3353C29.192 48.3044 26.8231 45.4178 25.4242 42.0406C24.0253 38.6634 23.6593 34.9471 24.3724 31.3619C25.0856 27.7766 26.8459 24.4834 29.4307 21.8986C32.0155 19.3137 35.3088 17.5535 38.894 16.8403C42.4793 16.1272 46.1955 16.4932 49.5727 17.8921C52.9499 19.291 55.8365 21.6599 57.8674 24.6993C59.8982 27.7388 60.9822 31.3122 60.9822 34.9676C60.9768 39.8678 59.0278 44.5658 55.5629 48.0308C52.0979 51.4957 47.4 53.4447 42.4998 53.4501V53.4501Z" fill="#302CFF"/>
<circle cx="42.5" cy="35.0198" r="23.8662" fill="#302CFF"/>
<path d="M52.5665 28.0509L39.3358 41.2816C38.9452 41.6721 38.3121 41.6721 37.9216 41.2816L32.4341 35.7941" stroke="white" stroke-width="5" stroke-miterlimit="10" stroke-linecap="round"/>
</svg>
