<svg width="85" height="85" viewBox="0 0 85 85" fill="none" xmlns="http://www.w3.org/2000/svg">
<rect opacity="0.1" width="85" height="85" fill="#302CFF"/>
<path opacity="0.4" d="M60.266 25.956C57.2531 22.3067 53.1875 19.6761 48.6241 18.4232C44.0607 17.1703 39.2218 17.3562 34.7679 18.9555C30.314 20.5548 26.4623 23.4896 23.7383 27.3594C21.0143 31.2291 19.5509 35.8451 19.5479 40.5774V46.8557" stroke="#302CFF" stroke-width="7" stroke-linecap="round" stroke-linejoin="round"/>
<path opacity="0.4" d="M26.856 60.1862C30.0154 63.534 34.1071 65.8563 38.6014 66.8523C43.0956 67.8483 47.7853 67.4722 52.0634 65.7727C56.3414 64.0732 60.0108 61.1286 62.5963 57.32C65.1819 53.5114 66.5645 49.0144 66.5653 44.4111V40.2312" stroke="#302CFF" stroke-width="7" stroke-linecap="round" stroke-linejoin="round"/>
<path d="M29.9139 39.2782C29.9007 39.53 29.8176 39.7744 29.6694 39.9866L19.9295 53.7847C19.6608 54.1637 19.2186 54.3803 18.7547 54.356C18.2908 54.3317 17.8736 54.07 17.646 53.6651L9.40173 38.9244C9.16278 38.4954 9.17411 37.9695 9.43577 37.5523C9.69573 37.1332 10.161 36.8908 10.6519 36.9165L28.636 37.859C29.1269 37.8847 29.5642 38.1745 29.779 38.6185C29.8816 38.8276 29.9256 39.0553 29.9139 39.2782" fill="#302CFF"/>
<path d="M55.6249 48.1854C55.6336 47.9368 55.7114 47.6942 55.8539 47.4823L65.2258 33.7012C65.4843 33.3227 65.9169 33.1013 66.375 33.1173C66.8331 33.1333 67.2493 33.3843 67.4808 33.7799L75.8685 48.1812C76.1116 48.6004 76.1095 49.1194 75.8585 49.5355C75.6093 49.9535 75.1544 50.2007 74.6697 50.1838L56.9101 49.5636C56.4253 49.5467 55.9888 49.2683 55.7694 48.834C55.6645 48.6294 55.6172 48.4056 55.6249 48.1854Z" fill="#302CFF"/>
</svg>
