<svg width="124" height="42" viewBox="0 0 124 42" fill="none" xmlns="http://www.w3.org/2000/svg">
<rect y="0.000488281" width="41.3333" height="41.3333" rx="11.6581" fill="#302CFF"/>
<path d="M13.4872 15.6313L6.77246 20.6683L13.4872 25.7052" stroke="white" stroke-width="3.78418" stroke-linecap="round" stroke-linejoin="round"/>
<path d="M27.8447 15.6313L34.5613 20.6683L27.8447 25.7052" stroke="white" stroke-width="3.78418" stroke-linecap="round" stroke-linejoin="round"/>
<path d="M22.3447 12.272L18.9873 29.0624" stroke="white" stroke-width="3.78418" stroke-linecap="round" stroke-linejoin="round"/>
<path d="M63.4141 30.3357C61.9241 30.3357 60.5365 30.0657 59.2513 29.5255C57.9848 28.9854 56.8766 28.2311 55.9267 27.2626C54.9769 26.2941 54.2319 25.1579 53.6917 23.8542C53.1702 22.5504 52.9095 21.1256 52.9095 19.5797C52.9095 18.0338 53.1702 16.609 53.6917 15.3052C54.2132 13.9828 54.9489 12.8467 55.8988 11.8968C56.8487 10.9283 57.9569 10.1833 59.2234 9.66178C60.5085 9.12165 61.9054 8.85158 63.4141 8.85158C64.9227 8.85158 66.273 9.10302 67.4651 9.6059C68.6757 10.1088 69.7001 10.7793 70.5382 11.6174C71.3763 12.4556 71.9723 13.3868 72.3262 14.4112L68.4988 16.2551C68.1449 15.2493 67.5209 14.4205 66.6269 13.7686C65.7515 13.0981 64.6806 12.7629 63.4141 12.7629C62.1848 12.7629 61.1045 13.0516 60.1733 13.6289C59.242 14.2063 58.5156 15.0072 57.9941 16.0316C57.4913 17.0374 57.2398 18.2201 57.2398 19.5797C57.2398 20.9393 57.4913 22.1313 57.9941 23.1557C58.5156 24.1801 59.242 24.981 60.1733 25.5584C61.1045 26.1358 62.1848 26.4245 63.4141 26.4245C64.6806 26.4245 65.7515 26.0985 66.6269 25.4466C67.5209 24.7761 68.1449 23.938 68.4988 22.9322L72.3262 24.7761C71.9723 25.8005 71.3763 26.7318 70.5382 27.5699C69.7001 28.408 68.6757 29.0785 67.4651 29.5814C66.273 30.0843 64.9227 30.3357 63.4141 30.3357ZM81.3222 30.3357C79.8136 30.3357 78.4353 29.9912 77.1874 29.302C75.9581 28.6129 74.9803 27.6723 74.2539 26.4803C73.5276 25.2697 73.1644 23.9007 73.1644 22.3735C73.1644 20.8276 73.5276 19.4586 74.2539 18.2666C74.9803 17.0746 75.9581 16.134 77.1874 15.4449C78.4353 14.7558 79.8136 14.4112 81.3222 14.4112C82.8308 14.4112 84.1998 14.7558 85.429 15.4449C86.6769 16.134 87.6641 17.0746 88.3905 18.2666C89.1168 19.4586 89.48 20.8276 89.48 22.3735C89.48 23.9007 89.1168 25.2697 88.3905 26.4803C87.6641 27.6723 86.6769 28.6129 85.429 29.302C84.1998 29.9912 82.8308 30.3357 81.3222 30.3357ZM81.3222 26.5641C82.477 26.5641 83.3989 26.173 84.088 25.3908C84.7958 24.6085 85.1497 23.6027 85.1497 22.3735C85.1497 21.1628 84.7958 20.1664 84.088 19.3841C83.3989 18.5832 82.477 18.1828 81.3222 18.1828C80.1861 18.1828 79.2641 18.5832 78.5564 19.3841C77.8486 20.1664 77.4947 21.1628 77.4947 22.3735C77.4947 23.6027 77.8486 24.6085 78.5564 25.3908C79.2641 26.173 80.1861 26.5641 81.3222 26.5641ZM98.0855 30.3357C96.6141 30.3357 95.2917 29.9819 94.1184 29.2741C92.945 28.5663 92.0137 27.6072 91.3246 26.3965C90.6541 25.1859 90.3188 23.8449 90.3188 22.3735C90.3188 20.8835 90.6634 19.5424 91.3525 18.3504C92.0416 17.1398 92.9729 16.1806 94.1463 15.4728C95.3197 14.7651 96.6234 14.4112 98.0576 14.4112C99.9015 14.4112 101.364 14.9513 102.444 16.0316V9.18683H106.634V30.0005H102.723V28.5477C102.183 29.1251 101.503 29.5721 100.684 29.8887C99.8829 30.1867 99.0168 30.3357 98.0855 30.3357ZM98.5884 26.5641C99.7245 26.5641 100.646 26.1823 101.354 25.4187C102.081 24.6364 102.444 23.6214 102.444 22.3735C102.444 21.1442 102.081 20.1384 101.354 19.3562C100.646 18.5739 99.7245 18.1828 98.5884 18.1828C97.4523 18.1828 96.5117 18.5832 95.7667 19.3841C95.0217 20.1664 94.6492 21.1628 94.6492 22.3735C94.6492 23.6027 95.0217 24.6085 95.7667 25.3908C96.5117 26.173 97.4523 26.5641 98.5884 26.5641ZM116.309 30.3357C114.707 30.3357 113.301 29.9819 112.091 29.2741C110.899 28.5477 109.967 27.5792 109.297 26.3686C108.645 25.1579 108.319 23.8169 108.319 22.3455C108.319 20.8183 108.654 19.4586 109.325 18.2666C110.014 17.0746 110.936 16.134 112.091 15.4449C113.264 14.7558 114.577 14.4112 116.03 14.4112C117.464 14.4112 118.749 14.7465 119.885 15.417C121.021 16.0875 121.925 16.9908 122.595 18.1269C123.266 19.2444 123.601 20.511 123.601 21.9265C123.601 22.2245 123.582 22.5225 123.545 22.8205C123.527 23.0999 123.48 23.342 123.405 23.5469H112.677C112.808 24.4967 113.199 25.2604 113.851 25.8378C114.503 26.4151 115.341 26.7038 116.365 26.7038C117.11 26.7038 117.743 26.5548 118.265 26.2568C118.805 25.9588 119.224 25.5491 119.522 25.0276L122.875 26.62C122.409 27.7375 121.589 28.6408 120.416 29.33C119.243 30.0005 117.874 30.3357 116.309 30.3357ZM116.03 17.7637C115.21 17.7637 114.512 17.9966 113.935 18.4622C113.357 18.9278 112.966 19.5983 112.761 20.4737H119.159C119.084 19.6542 118.758 19.0023 118.181 18.5181C117.622 18.0152 116.905 17.7637 116.03 17.7637Z" fill="#FAFAFD"/>
</svg>
