<svg width="124" height="42" viewBox="0 0 124 42" fill="none" xmlns="http://www.w3.org/2000/svg">
<rect width="41.3333" height="41.3333" rx="11.6581" fill="#302CFF"/>
<path d="M13.4872 15.6309L6.77246 20.6678L13.4872 25.7047" stroke="white" stroke-width="3.78418" stroke-linecap="round" stroke-linejoin="round"/>
<path d="M27.8447 15.6309L34.5613 20.6678L27.8447 25.7047" stroke="white" stroke-width="3.78418" stroke-linecap="round" stroke-linejoin="round"/>
<path d="M22.3447 12.2715L18.9873 29.0619" stroke="white" stroke-width="3.78418" stroke-linecap="round" stroke-linejoin="round"/>
<path d="M63.4141 30.3353C61.9241 30.3353 60.5365 30.0652 59.2513 29.5251C57.9848 28.9849 56.8766 28.2306 55.9267 27.2621C54.9769 26.2936 54.2319 25.1574 53.6917 23.8537C53.1702 22.5499 52.9095 21.1251 52.9095 19.5792C52.9095 18.0333 53.1702 16.6085 53.6917 15.3047C54.2132 13.9823 54.9489 12.8462 55.8988 11.8963C56.8487 10.9278 57.9569 10.1828 59.2234 9.66129C60.5085 9.12116 61.9054 8.85109 63.4141 8.85109C64.9227 8.85109 66.273 9.10253 67.4651 9.60541C68.6757 10.1083 69.7001 10.7788 70.5382 11.6169C71.3763 12.4551 71.9723 13.3863 72.3262 14.4107L68.4988 16.2546C68.1449 15.2488 67.5209 14.42 66.6269 13.7681C65.7515 13.0976 64.6806 12.7624 63.4141 12.7624C62.1848 12.7624 61.1045 13.0511 60.1733 13.6285C59.242 14.2058 58.5156 15.0067 57.9941 16.0311C57.4913 17.0369 57.2398 18.2196 57.2398 19.5792C57.2398 20.9388 57.4913 22.1309 57.9941 23.1552C58.5156 24.1796 59.242 24.9805 60.1733 25.5579C61.1045 26.1353 62.1848 26.424 63.4141 26.424C64.6806 26.424 65.7515 26.098 66.6269 25.4461C67.5209 24.7756 68.1449 23.9375 68.4988 22.9317L72.3262 24.7756C71.9723 25.8 71.3763 26.7313 70.5382 27.5694C69.7001 28.4075 68.6757 29.0781 67.4651 29.5809C66.273 30.0838 64.9227 30.3353 63.4141 30.3353ZM81.3222 30.3353C79.8136 30.3353 78.4353 29.9907 77.1874 29.3016C75.9581 28.6124 74.9803 27.6719 74.2539 26.4798C73.5276 25.2692 73.1644 23.9002 73.1644 22.373C73.1644 20.8271 73.5276 19.4581 74.2539 18.2661C74.9803 17.0741 75.9581 16.1335 77.1874 15.4444C78.4353 14.7553 79.8136 14.4107 81.3222 14.4107C82.8308 14.4107 84.1998 14.7553 85.429 15.4444C86.6769 16.1335 87.6641 17.0741 88.3905 18.2661C89.1168 19.4581 89.48 20.8271 89.48 22.373C89.48 23.9002 89.1168 25.2692 88.3905 26.4798C87.6641 27.6719 86.6769 28.6124 85.429 29.3016C84.1998 29.9907 82.8308 30.3353 81.3222 30.3353ZM81.3222 26.5637C82.477 26.5637 83.3989 26.1725 84.088 25.3903C84.7958 24.608 85.1497 23.6022 85.1497 22.373C85.1497 21.1623 84.7958 20.1659 84.088 19.3836C83.3989 18.5828 82.477 18.1823 81.3222 18.1823C80.1861 18.1823 79.2641 18.5828 78.5564 19.3836C77.8486 20.1659 77.4947 21.1623 77.4947 22.373C77.4947 23.6022 77.8486 24.608 78.5564 25.3903C79.2641 26.1725 80.1861 26.5637 81.3222 26.5637ZM98.0855 30.3353C96.6141 30.3353 95.2917 29.9814 94.1184 29.2736C92.945 28.5659 92.0137 27.6067 91.3246 26.396C90.6541 25.1854 90.3188 23.8444 90.3188 22.373C90.3188 20.883 90.6634 19.542 91.3525 18.3499C92.0416 17.1393 92.9729 16.1801 94.1463 15.4723C95.3197 14.7646 96.6234 14.4107 98.0576 14.4107C99.9015 14.4107 101.364 14.9508 102.444 16.0311V9.18635H106.634V30H102.723V28.5472C102.183 29.1246 101.503 29.5716 100.684 29.8882C99.8829 30.1863 99.0168 30.3353 98.0855 30.3353ZM98.5884 26.5637C99.7245 26.5637 100.646 26.1818 101.354 25.4182C102.081 24.6359 102.444 23.6209 102.444 22.373C102.444 21.1437 102.081 20.138 101.354 19.3557C100.646 18.5734 99.7245 18.1823 98.5884 18.1823C97.4523 18.1823 96.5117 18.5828 95.7667 19.3836C95.0217 20.1659 94.6492 21.1623 94.6492 22.373C94.6492 23.6022 95.0217 24.608 95.7667 25.3903C96.5117 26.1725 97.4523 26.5637 98.5884 26.5637ZM116.309 30.3353C114.707 30.3353 113.301 29.9814 112.091 29.2736C110.899 28.5472 109.967 27.5787 109.297 26.3681C108.645 25.1574 108.319 23.8164 108.319 22.345C108.319 20.8178 108.654 19.4581 109.325 18.2661C110.014 17.0741 110.936 16.1335 112.091 15.4444C113.264 14.7553 114.577 14.4107 116.03 14.4107C117.464 14.4107 118.749 14.746 119.885 15.4165C121.021 16.087 121.925 16.9903 122.595 18.1264C123.266 19.244 123.601 20.5105 123.601 21.926C123.601 22.224 123.582 22.522 123.545 22.82C123.527 23.0994 123.48 23.3415 123.405 23.5464H112.677C112.808 24.4963 113.199 25.2599 113.851 25.8373C114.503 26.4147 115.341 26.7033 116.365 26.7033C117.11 26.7033 117.743 26.5543 118.265 26.2563C118.805 25.9583 119.224 25.5486 119.522 25.0271L122.875 26.6195C122.409 27.737 121.589 28.6404 120.416 29.3295C119.243 30 117.874 30.3353 116.309 30.3353ZM116.03 17.7632C115.21 17.7632 114.512 17.9961 113.935 18.4617C113.357 18.9273 112.966 19.5978 112.761 20.4732H119.159C119.084 19.6537 118.758 19.0018 118.181 18.5176C117.622 18.0147 116.905 17.7632 116.03 17.7632Z" fill="#070721"/>
</svg>
