<svg width="173" height="43" viewBox="0 0 173 43" fill="none" xmlns="http://www.w3.org/2000/svg">
<g clip-path="url(#clip0)">
<path d="M59.9755 20.6839C58.7215 22.7183 56.9379 23.8887 54.6249 23.8887C51.2808 23.8887 48.8284 21.1856 48.8284 17.7021C48.8284 14.2186 51.1693 11.5433 54.6806 11.5433C56.9101 11.5433 58.9165 12.7974 59.9198 14.6924L63.1524 12.1285C61.5082 9.20244 58.5264 7.44678 54.7364 7.44678C48.6612 7.44678 44.3975 11.9613 44.3975 17.7021C44.3975 23.4428 48.7448 27.9853 54.6806 27.9853C58.4149 27.9853 61.5361 26.0067 63.236 23.192L59.9755 20.6839Z" fill="#1D1C43"/>
<path d="M72.0884 13.0203C67.6295 13.0203 64.4248 16.253 64.4248 20.4889C64.4248 24.6969 67.6295 27.9853 72.0884 27.9853C76.5472 27.9853 79.752 24.6969 79.752 20.4889C79.752 16.253 76.5472 13.0203 72.0884 13.0203ZM72.0884 16.7825C74.0112 16.7825 75.4604 18.2594 75.4604 20.4889C75.4604 22.7183 74.0112 24.2231 72.0884 24.2231C70.1655 24.2231 68.7164 22.7183 68.7164 20.4889C68.7164 18.2594 70.1655 16.7825 72.0884 16.7825Z" fill="#1D1C43"/>
<path d="M82.5205 13.3547V27.6509H86.7564V20.2102C86.7564 18.343 87.7317 16.7546 89.5153 16.7546C91.0759 16.7546 92.0791 17.73 92.0791 19.5971V27.6509H96.315V20.2102C96.315 18.343 97.2904 16.7546 99.0739 16.7546C100.635 16.7546 101.61 17.73 101.61 19.5971V27.6509H105.846V18.9561C105.846 15.2497 103.756 13.0203 100.328 13.0203C97.9035 13.0203 96.5379 14.0793 95.5068 15.5284C94.5315 13.94 92.9709 13.0203 90.7693 13.0203C88.9022 13.0203 87.5088 13.7449 86.5892 15.194V13.3547H82.5205Z" fill="#1D1C43"/>
<path d="M116.96 16.7546C118.771 16.7546 120.276 18.2316 120.276 20.5446C120.276 22.774 118.771 24.251 116.96 24.251C115.064 24.251 113.588 22.8019 113.588 20.5446C113.588 18.2037 115.064 16.7546 116.96 16.7546ZM113.392 13.3547H109.463V33.2244H113.699V26.0903C114.591 27.4279 116.291 27.9853 117.823 27.9853C121.725 27.9853 124.54 24.7526 124.54 20.4889C124.54 16.0858 121.502 13.0203 117.851 13.0203C116.458 13.0203 114.507 13.6055 113.392 15.3333V13.3547Z" fill="#1D1C43"/>
<path d="M134.729 18.7611L130.827 19.5135C127.817 20.1544 126.173 21.6036 126.173 23.7215C126.173 26.2017 128.124 27.9853 130.911 27.9853C132.806 27.9853 134.199 27.1492 134.868 25.8952V27.6509H138.797V18.6496C138.797 15.1661 136.429 13.0203 132.443 13.0203C129.768 13.0203 127.622 14.135 126.313 15.7235L128.514 18.3988C129.378 17.4234 130.604 16.671 132.193 16.671C133.642 16.671 134.729 17.2283 134.729 18.6496V18.7611ZM131.858 24.8362C130.855 24.8362 130.214 24.2789 130.214 23.4707C130.214 22.6904 130.771 22.1888 131.914 21.9937L134.757 21.4364V21.8544C134.757 23.5543 133.614 24.8362 131.858 24.8362Z" fill="#1D1C43"/>
<path d="M142.365 13.3547V27.6509H146.601V20.2102C146.601 18.343 147.577 16.7546 149.416 16.7546C150.977 16.7546 151.98 17.73 151.98 19.5971V27.6509H156.216V18.9561C156.216 15.2497 154.098 13.0203 150.67 13.0203C148.747 13.0203 147.354 13.7449 146.434 15.194V13.3547H142.365Z" fill="#1D1C43"/>
<path d="M163.132 27.1214L162.965 27.5951C162.352 29.6295 161.321 29.9917 160.206 29.9917C159.732 29.9917 159.008 29.936 158.255 29.518V33.0293C158.896 33.3359 159.816 33.5588 160.819 33.5588C163.522 33.5588 165.25 32.2769 166.671 28.8213L172.914 13.3547H168.594L165.25 22.7183L161.934 13.3547H157.503L163.132 27.1214Z" fill="#1D1C43"/>
<g filter="url(#filter0_d)">
<path d="M18.9897 5.51123H14.5107C14.055 5.51123 13.6855 5.88067 13.6855 6.33639V30.0465C13.6855 30.5022 14.055 30.8716 14.5107 30.8716H18.9897C19.4454 30.8716 19.8148 30.5022 19.8148 30.0465V6.33639C19.8148 5.88067 19.4454 5.51123 18.9897 5.51123Z" fill="#302CFF" fill-opacity="0.01"/>
</g>
<path d="M18.9897 5.51123H14.5107C14.055 5.51123 13.6855 5.88067 13.6855 6.33639V30.0465C13.6855 30.5022 14.055 30.8716 14.5107 30.8716H18.9897C19.4454 30.8716 19.8148 30.5022 19.8148 30.0465V6.33639C19.8148 5.88067 19.4454 5.51123 18.9897 5.51123Z" fill="#302CFF"/>
<g filter="url(#filter1_d)">
<path d="M28.0382 30.8716C30.9157 30.8716 33.2483 28.539 33.2483 25.6615C33.2483 22.7841 30.9157 20.4514 28.0382 20.4514C25.1608 20.4514 22.8281 22.7841 22.8281 25.6615C22.8281 28.539 25.1608 30.8716 28.0382 30.8716Z" fill="#302CFF" fill-opacity="0.01"/>
</g>
<path d="M28.0382 30.8716C30.9157 30.8716 33.2483 28.539 33.2483 25.6615C33.2483 22.7841 30.9157 20.4514 28.0382 20.4514C25.1608 20.4514 22.8281 22.7841 22.8281 25.6615C22.8281 28.539 25.1608 30.8716 28.0382 30.8716Z" fill="#302CFF"/>
<path d="M28.0382 15.9314C30.9157 15.9314 33.2483 13.5988 33.2483 10.7213C33.2483 7.84387 30.9157 5.51123 28.0382 5.51123C25.1608 5.51123 22.8281 7.84387 22.8281 10.7213C22.8281 13.5988 25.1608 15.9314 28.0382 15.9314Z" fill="#070721"/>
<path d="M5.46206 30.8716C8.33952 30.8716 10.6722 28.539 10.6722 25.6615C10.6722 22.7841 8.33952 20.4514 5.46206 20.4514C2.5846 20.4514 0.251953 22.7841 0.251953 25.6615C0.251953 28.539 2.5846 30.8716 5.46206 30.8716Z" fill="#070721"/>
</g>
<defs>
<filter id="filter0_d" x="5.68555" y="0.51123" width="22.1293" height="41.3604" filterUnits="userSpaceOnUse" color-interpolation-filters="sRGB">
<feFlood flood-opacity="0" result="BackgroundImageFix"/>
<feColorMatrix in="SourceAlpha" type="matrix" values="0 0 0 0 0 0 0 0 0 0 0 0 0 0 0 0 0 0 127 0"/>
<feOffset dy="3"/>
<feGaussianBlur stdDeviation="4"/>
<feColorMatrix type="matrix" values="0 0 0 0 0.187417 0 0 0 0 0.170833 0 0 0 0 1 0 0 0 0.2 0"/>
<feBlend mode="normal" in2="BackgroundImageFix" result="effect1_dropShadow"/>
<feBlend mode="normal" in="SourceGraphic" in2="effect1_dropShadow" result="shape"/>
</filter>
<filter id="filter1_d" x="14.8281" y="15.4514" width="26.4202" height="26.4202" filterUnits="userSpaceOnUse" color-interpolation-filters="sRGB">
<feFlood flood-opacity="0" result="BackgroundImageFix"/>
<feColorMatrix in="SourceAlpha" type="matrix" values="0 0 0 0 0 0 0 0 0 0 0 0 0 0 0 0 0 0 127 0"/>
<feOffset dy="3"/>
<feGaussianBlur stdDeviation="4"/>
<feColorMatrix type="matrix" values="0 0 0 0 0.187417 0 0 0 0 0.170833 0 0 0 0 1 0 0 0 0.2 0"/>
<feBlend mode="normal" in2="BackgroundImageFix" result="effect1_dropShadow"/>
<feBlend mode="normal" in="SourceGraphic" in2="effect1_dropShadow" result="shape"/>
</filter>
<clipPath id="clip0">
<rect width="173" height="42" fill="white" transform="translate(0 0.5)"/>
</clipPath>
</defs>
</svg>
