<svg width="185" height="47" viewBox="0 0 185 47" fill="none" xmlns="http://www.w3.org/2000/svg">
<g clip-path="url(#clip0)">
<path d="M45.501 19.1649C45.501 17.2713 45.9238 15.5799 46.7695 14.0908C47.6336 12.5833 48.801 11.4159 50.2717 10.5886C51.7608 9.74291 53.4246 9.32007 55.263 9.32007C57.414 9.32007 59.2984 9.8716 60.9162 10.9747C62.534 12.0777 63.6647 13.6036 64.3081 15.5524H59.8683C59.4271 14.6331 58.802 13.9437 57.9931 13.4841C57.2026 13.0245 56.2834 12.7947 55.2355 12.7947C54.114 12.7947 53.1121 13.0613 52.2296 13.5944C51.3656 14.1092 50.6854 14.8446 50.189 15.8005C49.711 16.7565 49.472 17.878 49.472 19.1649C49.472 20.4334 49.711 21.5548 50.189 22.5292C50.6854 23.4852 51.3656 24.2298 52.2296 24.7629C53.1121 25.2777 54.114 25.535 55.2355 25.535C56.2834 25.535 57.2026 25.3052 57.9931 24.8456C58.802 24.3676 59.4271 23.669 59.8683 22.7498H64.3081C63.6647 24.7169 62.534 26.252 60.9162 27.3551C59.3168 28.4398 57.4324 28.9821 55.263 28.9821C53.4246 28.9821 51.7608 28.5685 50.2717 27.7412C48.801 26.8955 47.6336 25.7281 46.7695 24.2389C45.9238 22.7498 45.501 21.0585 45.501 19.1649Z" fill="#1D1C43"/>
<path d="M74.3896 29.0648C72.9188 29.0648 71.5952 28.7431 70.4186 28.0996C69.242 27.4378 68.3136 26.5094 67.6333 25.3144C66.9715 24.1194 66.6406 22.7406 66.6406 21.178C66.6406 19.6153 66.9807 18.2365 67.6609 17.0415C68.3595 15.8465 69.3063 14.9273 70.5013 14.2838C71.6963 13.622 73.0291 13.2911 74.4999 13.2911C75.9706 13.2911 77.3035 13.622 78.4985 14.2838C79.6935 14.9273 80.6311 15.8465 81.3113 17.0415C82.0099 18.2365 82.3592 19.6153 82.3592 21.178C82.3592 22.7406 82.0007 24.1194 81.2837 25.3144C80.5851 26.5094 79.6291 27.4378 78.4157 28.0996C77.2208 28.7431 75.8787 29.0648 74.3896 29.0648ZM74.3896 25.7005C75.0882 25.7005 75.7408 25.535 76.3475 25.2041C76.9726 24.8548 77.469 24.3401 77.8366 23.6598C78.2043 22.9796 78.3882 22.1523 78.3882 21.178C78.3882 19.7256 78.0021 18.6133 77.23 17.8412C76.4762 17.0507 75.5478 16.6554 74.4447 16.6554C73.3417 16.6554 72.4133 17.0507 71.6595 17.8412C70.9241 18.6133 70.5565 19.7256 70.5565 21.178C70.5565 22.6303 70.9149 23.7518 71.6319 24.5423C72.3673 25.3144 73.2865 25.7005 74.3896 25.7005Z" fill="#1D1C43"/>
<path d="M104.164 13.3187C106.039 13.3187 107.546 13.8978 108.686 15.056C109.844 16.1958 110.424 17.7952 110.424 19.8543V28.8166H106.563V20.3782C106.563 19.1833 106.259 18.2732 105.653 17.6482C105.046 17.0047 104.219 16.683 103.171 16.683C102.123 16.683 101.287 17.0047 100.661 17.6482C100.055 18.2732 99.7517 19.1833 99.7517 20.3782V28.8166H95.891V20.3782C95.891 19.1833 95.5877 18.2732 94.981 17.6482C94.3743 17.0047 93.547 16.683 92.4991 16.683C91.4328 16.683 90.5871 17.0047 89.9621 17.6482C89.3554 18.2732 89.0521 19.1833 89.0521 20.3782V28.8166H85.1914V13.5393H89.0521V15.3869C89.5484 14.7434 90.1827 14.2379 90.9548 13.8702C91.7454 13.5025 92.6094 13.3187 93.547 13.3187C94.742 13.3187 95.8083 13.576 96.7459 14.0908C97.6835 14.5872 98.4097 15.3042 98.9244 16.2418C99.4208 15.3593 100.137 14.6515 101.075 14.1184C102.031 13.5852 103.061 13.3187 104.164 13.3187Z" fill="#1D1C43"/>
<path d="M117.948 15.7454C118.444 15.0468 119.124 14.4677 119.988 14.0081C120.871 13.5301 121.873 13.2911 122.994 13.2911C124.3 13.2911 125.476 13.6128 126.524 14.2563C127.59 14.8997 128.427 15.8189 129.034 17.0139C129.659 18.1905 129.971 19.5601 129.971 21.1228C129.971 22.6855 129.659 24.0735 129.034 25.2868C128.427 26.4818 127.59 27.4102 126.524 28.0721C125.476 28.7339 124.3 29.0648 122.994 29.0648C121.873 29.0648 120.88 28.835 120.016 28.3754C119.17 27.9158 118.481 27.3367 117.948 26.6381V36.0968H114.087V13.5393H117.948V15.7454ZM126.028 21.1228C126.028 20.2036 125.835 19.4131 125.449 18.7512C125.081 18.071 124.585 17.5562 123.959 17.2069C123.353 16.8576 122.691 16.683 121.974 16.683C121.275 16.683 120.614 16.8668 119.988 17.2345C119.382 17.5838 118.885 18.0986 118.499 18.7788C118.132 19.459 117.948 20.2587 117.948 21.178C117.948 22.0972 118.132 22.8969 118.499 23.5771C118.885 24.2573 119.382 24.7813 119.988 25.149C120.614 25.4983 121.275 25.6729 121.974 25.6729C122.691 25.6729 123.353 25.4891 123.959 25.1214C124.585 24.7537 125.081 24.2298 125.449 23.5495C125.835 22.8693 126.028 22.0604 126.028 21.1228Z" fill="#1D1C43"/>
<path d="M131.784 21.1228C131.784 19.5785 132.087 18.2089 132.694 17.0139C133.319 15.8189 134.155 14.8997 135.203 14.2563C136.27 13.6128 137.455 13.2911 138.761 13.2911C139.901 13.2911 140.893 13.5209 141.739 13.9805C142.603 14.4401 143.292 15.0192 143.807 15.7178V13.5393H147.695V28.8166H143.807V26.5829C143.311 27.2999 142.621 27.8974 141.739 28.3754C140.875 28.835 139.873 29.0648 138.733 29.0648C137.446 29.0648 136.27 28.7339 135.203 28.0721C134.155 27.4102 133.319 26.4818 132.694 25.2868C132.087 24.0735 131.784 22.6855 131.784 21.1228ZM143.807 21.178C143.807 20.2404 143.623 19.4406 143.256 18.7788C142.888 18.0986 142.392 17.5838 141.767 17.2345C141.141 16.8668 140.47 16.683 139.753 16.683C139.036 16.683 138.375 16.8576 137.768 17.2069C137.161 17.5562 136.665 18.071 136.279 18.7512C135.911 19.4131 135.727 20.2036 135.727 21.1228C135.727 22.042 135.911 22.8509 136.279 23.5495C136.665 24.2298 137.161 24.7537 137.768 25.1214C138.393 25.4891 139.055 25.6729 139.753 25.6729C140.47 25.6729 141.141 25.4983 141.767 25.149C142.392 24.7813 142.888 24.2665 143.256 23.6047C143.623 22.9245 143.807 22.1156 143.807 21.178Z" fill="#1D1C43"/>
<path d="M159.932 13.3187C161.752 13.3187 163.223 13.8978 164.344 15.056C165.466 16.1958 166.027 17.7952 166.027 19.8543V28.8166H162.166V20.3782C162.166 19.1649 161.862 18.2365 161.256 17.593C160.649 16.9312 159.822 16.6003 158.774 16.6003C157.708 16.6003 156.862 16.9312 156.237 17.593C155.63 18.2365 155.327 19.1649 155.327 20.3782V28.8166H151.466V13.5393H155.327V15.442C155.842 14.7802 156.494 14.2654 157.285 13.8978C158.094 13.5117 158.976 13.3187 159.932 13.3187Z" fill="#1D1C43"/>
<path d="M184.313 13.5393L174.855 36.0417H170.746L174.055 28.4306L167.933 13.5393H172.262L176.206 24.2114L180.204 13.5393H184.313Z" fill="#1D1C43"/>
<g filter="url(#filter0_d)">
<path d="M10.2287 37.1188H7.47656V17.8467H17.8001V29.5475C17.8001 33.7284 14.4121 37.1188 10.2287 37.1188Z" fill="#302CFF" fill-opacity="0.01"/>
<path d="M31.5653 17.8467C31.5653 11.196 26.174 5.80225 19.5208 5.80225C18.9365 5.80225 18.362 5.84644 17.7998 5.92745V17.8467H31.5653Z" fill="#302CFF" fill-opacity="0.01"/>
</g>
<path d="M10.2287 37.1188H7.47656V17.8467H17.8001V29.5475C17.8001 33.7284 14.4121 37.1188 10.2287 37.1188Z" fill="#302CFF"/>
<path d="M31.5653 17.8467C31.5653 11.196 26.174 5.80225 19.5208 5.80225C18.9365 5.80225 18.362 5.84644 17.7998 5.92745V17.8467H31.5653Z" fill="#302CFF"/>
<path d="M27.6647 30.5433C30.3049 29.4661 31.5718 26.4525 30.4946 23.8124C29.4173 21.1722 26.4037 19.9053 23.7636 20.9825C21.1235 22.0598 19.8565 25.0734 20.9338 27.7135C22.011 30.3536 25.0246 31.6206 27.6647 30.5433Z" fill="#070721"/>
</g>
<defs>
<filter id="filter0_d" x="0.476562" y="0.802246" width="38.0887" height="45.3166" filterUnits="userSpaceOnUse" color-interpolation-filters="sRGB">
<feFlood flood-opacity="0" result="BackgroundImageFix"/>
<feColorMatrix in="SourceAlpha" type="matrix" values="0 0 0 0 0 0 0 0 0 0 0 0 0 0 0 0 0 0 127 0"/>
<feOffset dy="2"/>
<feGaussianBlur stdDeviation="3.5"/>
<feColorMatrix type="matrix" values="0 0 0 0 0.187417 0 0 0 0 0.170833 0 0 0 0 1 0 0 0 0.1 0"/>
<feBlend mode="normal" in2="BackgroundImageFix" result="effect1_dropShadow"/>
<feBlend mode="normal" in="SourceGraphic" in2="effect1_dropShadow" result="shape"/>
</filter>
<clipPath id="clip0">
<rect width="185" height="46" fill="white" transform="translate(0 0.5)"/>
</clipPath>
</defs>
</svg>
